<svg xmlns="http://www.w3.org/2000/svg" width="60.56" height="53.027" viewBox="0 0 60.56 53.027">
    <path fill="#d2a72f" fill-rule="evenodd" d="M503.068-444.787l-.064-.034-.1.162.061.037.103-.165zm15.26-7.317a.956.956 0 0 0 .134.083c.008 0 .05-.034.048-.039a.372.372 0 0 0-.07-.107c-.008-.007-.054.03-.113.067zm-23.1-5.985l.043.067.172-.11-.044-.068zm3.947 8.47c.184-.048.184-.048.2-.2zm26.179 10.277c.024.056.039.113.05.113a.334.334 0 0 0 .133-.043c.007 0-.013-.086-.025-.088a.718.718 0 0 0-.162.017zm-16.4-3.723l-.056-.068-.119.151.041.037zm15.259-9.034c.049-.055.088-.078.089-.1a.274.274 0 0 0-.037-.1c-.031.013-.089.025-.09.041a.612.612 0 0 0 .034.158zm-39.774-21.718l-.047-.027-.105.169.061.033zm.463-1.554l-.057-.077-.156.153.042.05zM507.831-444l.091.067.147-.235-.064-.043zm-5.217-3.373l.1-.006c0-.082-.008-.164-.012-.246h-.072zm-1.952-2.68h-.083c0 .065-.006.131-.01.2l.08.006c0-.067.008-.132.013-.2zm25.79 6.665c.062-.044.123-.065.129-.1s-.037-.081-.058-.122c-.041.021-.1.033-.115.065s.022.083.044.154zM501.9-474.254l-.025-.1-.185.071c.007.022.013.044.022.067l.188-.043zm22 23.211c.034.062.047.11.079.134s.067-.015.1-.025a.564.564 0 0 0-.06-.129c-.008-.012-.058.009-.121.02zm-34.415-20.878l.015-.079-.179-.034c0 .028-.009.055-.014.082zm-6.518.092l.072.068c.043-.047.087-.093.124-.143a.605.605 0 0 0-.072-.07zm39.658 33.925h.069v-.267h-.083c.006.087.011.176.015.266zm-1.293-17.041l-.094.076.18.146.054-.054zm.233.483l-.154.069a.585.585 0 0 0 .106.13c.015.01.091-.036.1-.069s-.03-.075-.057-.13zm-26.265-5.627l-.062-.02-.068.212.061.02.069-.212zm8.381 22.278h-.058c-.011.034-.035.072-.03.1a.521.521 0 0 0 .054.131l.073-.018c-.011-.066-.02-.14-.038-.214zm-18.951-28.072c0 .017-.006.035-.008.052.041.019.083.053.124.05a.429.429 0 0 0 .138-.056l-.019-.057-.235.01zm2.46-5.307c-.026-.013-.051-.028-.075-.043-.04.071-.078.143-.117.214l.062.036zm-.623.317l.094-.044-.1-.179-.067.033zm-.806 19.493l.09-.006v-.234l-.135.02.045.22zm-7.612-32.537c.158.156.158.156.381.122zm8.956 7.575l-.037-.095-.225.1c.01.025.022.047.032.072l.229-.079zm-3 8.764l-.121-.082-.135.223.095.064zm12.726 4.849c-.13-.047-.192.015-.206.134 0 .022.047.074.068.072.117-.012.182-.071.134-.206zm28.365 10.337c0 .035-.008.068-.01.1h.28v-.062zm-45.5-13.067c-.058.063-.11.093-.115.13s.04.076.064.114c.038-.028.095-.048.108-.085s-.03-.08-.06-.158zm24.814 17.784l.079.073.156-.149-.1-.1-.138.177zm4.154 2.19l-.113-.04-.055.217.086.027.082-.2zm-13.486-13.607c.062-.29.062-.29-.2-.345.066.124.122.213.197.346zm-9.126-17.826l.077.1.194-.14-.092-.115-.178.152zm-.74 9.024l.081.053.145-.143-.147-.1-.079.191zM496-457.7l.024-.087c-.092-.093-.188-.123-.349.027zm-16.476-25.33l.155-.115c-.03-.037-.061-.1-.091-.1a.236.236 0 0 0-.139.077c-.011.006.037.068.073.137zm25.814 11.15l.046.118.255-.088c-.011-.034-.022-.068-.034-.1zm15.444 16.958l-.09-.044c-.128.058-.177.142-.057.331zM485.27-469.25l.067.026.107-.256-.06-.027-.116.255zm40.9 23.1a.257.257 0 0 0 .284-.213c-.206-.08-.294-.029-.286.21zm-27.706 5.788l.085.018c.083-.148.083-.148-.01-.375-.039.165-.058.26-.077.354zm1.4-23.738c.008.036.016.072.026.108.124.029.261.084.273-.207zm-.569 17.648l-.09-.031-.136.335c.251-.064.248-.181.224-.308zm-2.249 2.405c-.215.063-.229.177-.13.4zm-7.28-31.326c-.04-.2-.135-.217-.326-.105zm7.456 12.4c.15.019.247.012.256-.13a.1.1 0 0 0-.067-.074c-.118-.005-.194.042-.191.205zm23.577 7.81c.256-.134.256-.134.1-.314-.037.112-.071.213-.099.315zm-40.306-26.713l-.034-.093-.333.12c.205.19.288.096.365-.026zm.517 14.859l-.091-.085a.337.337 0 0 0-.207.362zm15.506 5.08c-.115.063-.22.1-.174.239a.1.1 0 0 0 .089.05c.116-.037.162-.118.082-.288zm20.79 8.984l-.093-.07c-.112.069-.2.152-.158.4zm-33.939-19.377c.213-.12.213-.12.158-.374-.071.161-.116.269-.161.375zm20.171 32.648c-.017.346-.017.346.175.512zm8.685-13.872c-.313.08-.313.08-.128.3l.126-.298zm8.336 9.09l-.068-.048c-.2.139-.2.139-.224.436zm4.367 5.5c-.061-.081-.09-.162-.128-.166-.154-.018-.225.077-.27.254zm-27.391-8.117l.177-.474c-.268.201-.268.201-.179.479zm28.516-2.477l-.073.086.367.3c-.01-.28-.133-.351-.296-.381zM484.9-455.33c-.214.284-.214.284.046.36l-.046-.36zm-2.65-13.552c-.131.175-.274.254-.193.5.135-.128.325-.167.193-.5zm32.35 18.895c-.171.135-.284.23-.2.395.022.045.107.057.2.1zm-14.672 1.194c.278-.036.3-.133.231-.265-.019-.036-.087-.046-.131-.067-.028.095-.055.19-.098.332zm-17.35-20.618l-.1-.034c-.179.1-.219.235-.044.473zm.524 1.709l.4-.3c-.322-.148-.348-.132-.402.302zm.742-12.571c.138.006.248-.033.28-.185.006-.027-.059-.1-.091-.1-.17 0-.222.104-.187.285zm3.312 18.73c-.2-.2-.392-.1-.655-.054.256.133.432.197.657.054zm17.883 26.406l-.083.658c.304-.343.304-.343.085-.658zm2.267-9.362l-.087-.029a.716.716 0 0 0-.151.2c-.016.051.04.125.064.189.06-.034.149-.055.168-.1a.75.75 0 0 0 .008-.261zm4.409 3.412c.2.243.245.234.365-.068-.187-.045-.187-.045-.363.068zm-9.206-1.636l.066.061c.283-.085.283-.085.231-.4zm-19.017-34.127l-.634-.071c.364.337.395.34.636.072zm15.43 35.4a.57.57 0 0 0 0-.522c-.222.197-.222.197.001.521zm-10.576-30.61c.192.041.392.123.584-.056-.215-.168-.398-.065-.583.055zm15.264 21.9l.255-.118c-.03-.058-.06-.166-.093-.167a.378.378 0 0 0-.218.082c-.016.012.028.105.056.2zm13.8.613a.738.738 0 0 0-.236.65.517.517 0 0 0 .238-.654zm-32.156-.953c.446-.011.47-.038.4-.362zm28.016 2.093c.077-.252.222-.406.155-.65-.336.303-.336.303-.153.646zm-14.97-10.68a.646.646 0 0 0 .473-.385l-.543.123c.02.093.042.171.07.262zm23.8 3.827c-.166.169-.29.3-.439.447.372.079.404.047.439-.447zm-23.23 11.891c-.256.264-.254.288.075.554a.748.748 0 0 0-.074-.553zm22.7-12.817l-.388.048c-.022.054-.054.095-.046.124a1.775 1.775 0 0 0 .088.229.951.951 0 0 0 .21-.127 1.233 1.233 0 0 0 .136-.274zm-29.378-18.689c.168.171.27.433.618.436-.128-.311-.394-.341-.617-.435zm-2.336-4.376c-.292.3-.294.308-.166.571.21-.13.243-.309.167-.57zm27.717 26.9c-.292.172-.292.172-.328.423.404-.094.43-.123.33-.427zm-37.35-30.266l-.135.005a1.646 1.646 0 0 0-.077.352c0 .045.12.142.149.129.069-.03.164-.11.164-.171a1.056 1.056 0 0 0-.099-.319zm46.39 35.341a.672.672 0 0 0 .523.262c-.119-.38-.236-.447-.521-.267zm-42.022-2.555l-.116.425c.178.084.286.068.352-.089.073-.183-.003-.272-.234-.341zm6.487-20.355l.1.026.216-.507-.062-.048-.333.162c.033.137.057.253.081.363zm17.238 26.383c-.194.041-.382.051-.363.288 0 .051.1.126.163.134.141.016.208-.119.202-.427zm-25.324-27.234c.263-.227.274-.251.294-.654-.202.168-.386.31-.292.649zm3.956 13.187c.432-.119.443-.135.326-.441-.274.13-.274.13-.323.436zm-4.856-8.567c.169.175.1.51.46.425-.186-.28-.186-.28-.1-.582zm3.864-2.308c-.133-.146-.248-.17-.364-.053s-.057.235.153.423zm-5.206-8.559c.209.384.333.385.528.044zm18.489 17.124h-.607l.43.469.18-.475zm25.382 17.682c0-.2.008-.35.011-.489-.185-.049-.313-.039-.346.13-.033.189.102.264.338.353zm-36.669-8.439c-.028.223-.055.447-.091.723.332-.237.349-.351.094-.729zm-3.852-16.199c-.337-.115-.527-.015-.583.308a.564.564 0 0 0 .583-.308zm35.786 12.683l-.065-.065-.463.406.205.318c.131-.26.228-.46.326-.659zm-2.308 9.4c-.222.057-.412.09-.593.155-.143.051-.17.154-.024.278.216-.105.528-.061.62-.43zM480.83-466.3l-.05-.076c-.382.079-.5.2-.582.639.234-.206.433-.384.632-.563zm-.963-.639c.225-.232.531-.391.623-.727-.29.177-.574.349-.623.728zm5.029-11.833l-.174-.4a.8.8 0 0 0-.472.37zm-3.277 10.184a.341.341 0 0 1-.519 0c-.2.211-.008.276.1.332.18.094.328-.017.42-.331zm5.537.791l.042.086.616-.381c-.314-.198-.433-.136-.657.292zm11.527 22.947l.085.041c.4-.322.426-.378.264-.8zm-17.415-21.176l.488.069.04-.49a.761.761 0 0 0-.528.422zm7.47-2.66c.215-.067.382-.141.43-.34.016-.066-.054-.152-.085-.228-.087.037-.22.051-.251.116a1.9 1.9 0 0 0-.094.453zm32.425 20.02c.234-.037.392-.15.417-.3s-.061-.191-.182-.191c-.216.004-.283.137-.235.492zm3.708-1.773c.3.02.5.175.7-.04a.5.5 0 0 0-.5-.256c-.056 0-.1.145-.2.3zM498.6-460.521a.737.737 0 0 0 .184-.68l-.491.357zm-12.078-8.02a.741.741 0 0 0 .653-.256l-.406-.29-.246.546zm1.895-4.043c0-.033-.006-.065-.01-.1a5.147 5.147 0 0 0-.638.041c-.158.029-.188.153-.108.309a1.256 1.256 0 0 0 .759-.251zm-3.887-7.091c-.055-.13-.1-.242-.157-.369-.4.317-.4.317-.349.59zm14.008 37.612a.371.371 0 0 0 .247-.417.254.254 0 0 0-.172-.17.236.236 0 0 0-.187.137c-.036.145-.083.313.112.45zm-.684 1.194c-.241.173-.3.3-.214.422a.285.285 0 0 0 .414.042c.116-.129.062-.253-.196-.464zm7.78 7.637a1.006 1.006 0 0 0-.214-.933l-.161.427c.125.163.227.299.378.505zm18.757-18.684c-.284.28-.279.377.034.669l.268-.475zM478.443-476.2c.248-.026.4-.105.424-.27a.436.436 0 0 0-.152-.3.169.169 0 0 0-.291.11 3.531 3.531 0 0 0 .019.46zm19.525 37.059a.946.946 0 0 0-.358 1.115c.122-.374.226-.706.358-1.113zm13.949-6.867c.092-.085.2-.134.2-.2a4.57 4.57 0 0 0 .025-.652c0-.036-.072-.1-.1-.1-.053.012-.133.06-.138.1a2.063 2.063 0 0 0 .013.854zm-8.562-3.89c-.051.161-.1.3-.15.47l.368.065.173-.54zm20.183 1.183l.081.018a1.24 1.24 0 0 1 .5-.6c.038-.02.042-.1.068-.167-.314.034-.314.034-.75.436.033.1.068.206.1.314zm-37.383-22.2l-.088-.047c-.487.355-.6.575-.458 1zm15.645 30.628c.138-.563.064-.713-.341-.763-.109.335.071.539.341.763zm7.244-4.727c-.329.129-.329.129-.432.716.344-.044.488-.27.43-.717zm-10.114 10.483l.105.005.067-1.311-.133-.009a2.007 2.007 0 0 0-.039 1.314zm8.756-9.9a2.252 2.252 0 0 0 .382-.308.288.288 0 0 0 0-.274.3.3 0 0 0-.27-.044c-.212.075-.249.257-.112.622zm-4.754-3.9a1.084 1.084 0 0 0 .425-.615c.021-.054-.117-.17-.183-.257-.068.068-.183.125-.2.2a5.13 5.13 0 0 0-.044.669zm-26.52-28c-.2.044-.428-.02-.6.2.168.068.315.117.454.185s.235.21.412.135c-.078-.172-.162-.326-.266-.523zm49.714 30.624c-.667.519-.774.682-.638.947a1.521 1.521 0 0 0 .638-.95zM522.4-456.67c.116-.359.112-.347-.108-.438-.408-.169-.613.148-.877.332.331.014.661-.378.985.106zm-1.946 3.015c-.277.329-.279.354-.067.809l.263-.09-.132-.342c.036-.2.371-.028.3-.3zm-21.431.32a4.711 4.711 0 0 0-.363-.444c-.053-.053-.162-.047-.246-.067a1.238 1.238 0 0 0-.03.283c.006.058.072.107.1.165.181.34.18.341.536.064zM481.852-481.2c-.14.13-.171.265-.029.374a1.205 1.205 0 0 0 .419.21c.075.02.176-.057.263-.091-.04-.085-.058-.2-.126-.248a4.155 4.155 0 0 0-.527-.245zm36.935 27.416c.131.621.135.625.542.571a.83.83 0 0 0-.244-.691zM487.3-469.67a.442.442 0 0 0-.079.573c.155-.046.28-.088.408-.116s.284-.038.342-.241l-.67-.216zm9.873 30.776c.161.09.237.011.263-.1a4.918 4.918 0 0 0 .12-.693c.012-.155-.105-.221-.3-.231-.028.344-.056.674-.079 1.024zm-12.518-30.524l-.077-.046-.678 1.146c.514-.116.745-.457.755-1.1zm33.722 16.23l-.095-.04c-.1.115-.2.227-.291.347a.278.278 0 0 0 .06.389.246.246 0 0 0 .2.052.291.291 0 0 0 .221-.33 3.754 3.754 0 0 0-.1-.418zm-36.158-14.134l-.225-.472h-.094a4.524 4.524 0 0 0-.2.448c-.046.144-.357.136-.2.423l.712-.4zm6.364-1.744l-.355.16a.978.978 0 0 0-.142.063c-.228.152-.234.277-.025.54.353-.09.413-.39.526-.762zm-2.983 12.777c.583-.026.729-.239.467-.648-.42.119-.494.217-.467.648zm4.83-19.435c-.268-.422-1.095-.311-1.683.109.246-.023.484.027.589-.069a.581.581 0 0 1 .618-.1 4.467 4.467 0 0 0 .476.061zm8.869 28.477c.467-.218.534-.636.735-.994a.92.92 0 0 0-.734.995zm24.289 4.977l-.271.242c.341-.044.479-.09.505-.218.055-.274.082-.555.128-.885-.423.294-.484.454-.358.862zm-31.867-30.46c-.206.455-.213.557-.062.862a2.106 2.106 0 0 0 .522-.785zm7.592 19.871c-.1-.273-.1-.276-.331-.192a3.756 3.756 0 0 0-.473.194c-.068.037-.109.124-.182.211a.794.794 0 0 0 .989-.211zM484.557-475.5c.237-.13.423-.24.457-.464a.565.565 0 0 0-.091-.352c-.027-.044-.171-.043-.251-.022-.154.04-.176.178-.169.316.01.154.031.307.054.521zm.451 6.9c-.154.2-.315.4-.46.616a.19.19 0 0 0 .1.293.286.286 0 0 0 .266-.069.743.743 0 0 0 .094-.84zm-2.713-1.254c.6-.284.736-.67.375-1.013a1.656 1.656 0 0 0-.375 1.017zm16.124 6.516c.024-.224-.066-.3-.211-.336a1.415 1.415 0 0 0-.454-.084c-.068.008-.168.188-.156.28a.327.327 0 0 0 .226.224 3.158 3.158 0 0 0 .595-.08zm-7.2-8.908a.658.658 0 0 0-.5.886l.431-.125.064-.758zm7.741 27.769c-.587.286-.788.712-.571 1.123a1.623 1.623 0 0 0 .566-1.119zm19.9-7.2l-.117-.028-.2.393c-.051-.145.051-.319-.169-.347l-.248.367c.144.091.262.175.388.245.226.126.4.037.4-.213a2.865 2.865 0 0 0-.054-.413zM490-469.648a1.568 1.568 0 0 0 .246-.168 1.239 1.239 0 0 0 .288-1.029.378.378 0 0 0-.158-.208.178.178 0 0 0-.17.042c-.072.12-.18.27-.047.394.155.142.107.276.05.427s-.118.308-.209.543zm29.39 23.393c-.476.087-.726.432-1.076.62.192.269.2.274.38.173a1.3 1.3 0 0 0 .694-.792zm-34.35-7.127c.381.359.641.352.914-.009-.541-.477-.611-.477-.915.009zm24.569 2.034c.822.02 1.121-.307.977-.849zm11.105 4.022a3.5 3.5 0 0 0-1.025.986c.325.109.493.033.575-.225.124-.4.162-.417.558-.285a1 1 0 0 0 .175.018zm-35.8-3.411a1.155 1.155 0 0 0 .585-.293.244.244 0 0 0 .02-.353c-.1-.14-.6-.082-.663.082a.48.48 0 0 0 .054.565zm40.5 7.529a.759.759 0 0 0 .189-.007c.379-.148.494-.56.782-.8.022-.019-.019-.15-.063-.2a.182.182 0 0 0-.175-.006 1.687 1.687 0 0 0-.738 1.014zm-40.72-34.149c.318-.308.123-.712.237-1.156a5 5 0 0 0-.479.423q-.424.484.237.733zm2.9 1.646a1.118 1.118 0 0 0 1.379-.4 1.6 1.6 0 0 0-1.388.4zm6.791 18.415c.2.408.22.426.565.251.213-.107.49-.126.622-.413a1.185 1.185 0 0 0-1.187.162zm4.244 20.088c-.319.737-.347 1.375-.05 1.669.017-.144.02-.256.044-.366a2.131 2.131 0 0 1 .137-.485c.179-.376.182-.422-.14-.818zm-.54.52c.064-.093.165-.173.155-.236-.081-.5.187-1.019-.1-1.6-.093.356-.148.65-.248.927a.878.878 0 0 0 .184.909zm-17.158-45.13a.518.518 0 0 0-.3.613.332.332 0 0 0 .2.194 1.239 1.239 0 0 0 .468-.034.232.232 0 0 0 .121-.4c-.162-.125-.327-.243-.497-.373zm41.639 32.725c.061.312.105.613.187.9.025.087.188.215.24.2.105-.039.185-.16.26-.259.024-.032.008-.105-.009-.155-.073-.223-.152-.444-.227-.66l-.378-.051c-.019-.005-.032.006-.081.025zm-13.8 2.81c-.117.058-.254.08-.3.156a.476.476 0 0 1-.432.234c-.513.027-.559.48-.806.8.1.012.147.036.169.019.266-.187.525-.384.791-.571a.743.743 0 0 1 .264-.137c.331-.067.333-.061.31-.502zm8.163-7.168a.762.762 0 0 0-1.172.712 1.528 1.528 0 0 0 1.167-.712zm-38.747-23.107a1.563 1.563 0 0 0-1.323.312 1.241 1.241 0 0 0 1.305.062c.001-.122.007-.25.014-.375zm13.3.812a5.785 5.785 0 0 0 .721.577 1.742 1.742 0 0 0 .82.371 2.75 2.75 0 0 0-2.312-1.124l.545.4zm.377 1.2a3.737 3.737 0 0 0-.161.517 3.106 3.106 0 0 0-.015.548c0 .149.027.3.043.448a.591.591 0 0 0 .563-.378c.092-.2-.124-.258-.211-.374.218-.382.218-.415-.228-.762zm27.205 30.961a1.228 1.228 0 0 0-.085-1.052.507.507 0 0 0-.27-.144.345.345 0 0 0-.275.067.344.344 0 0 0-.031.282c.05.175.151.336.2.51a.44.44 0 0 0 .453.336zm-19.6-19.6c-.123-.31-.294-.4-.537-.268-.306.172-.592.378-.884.575-.025.017-.025.069-.046.133.165.044.325.1.489.128a.332.332 0 0 0 .228-.014c.252-.176.497-.369.743-.553zm3.4 25.864c.036.117.067.228.1.337a2.406 2.406 0 0 1 .131.37c.1.6.236.471.672.509-.023-.319.144-.658-.136-.984l-.273.281c-.062-.5-.096-.536-.497-.512zm-15.992-37.75l-.079-.092a1.822 1.822 0 0 0-1.432.832c-.12.187-.269.356-.392.54-.177.262-.447.476-.473.871.213-.081.269-.246.347-.391a2.4 2.4 0 0 1 .972-1.109c.3-.151.609-.3.908-.468.06-.035.097-.121.146-.183zm9.936 21.111a1.885 1.885 0 0 0 .882.264c.141.012.319-.033.341-.2a.742.742 0 0 0-.093-.4c-.042-.088-.154-.139-.223-.217a.256.256 0 0 0-.411-.018c-.175.172-.324.367-.499.571zm-10.842 2.091c.04-.1.075-.2.119-.3.089-.191.016-.318-.137-.443a.409.409 0 0 0-.478-.035c-.153.069-.307.16-.5.046l.051-.445c-.106.108-.169.141-.176.185a2.062 2.062 0 0 0 .189 1.024l.459-.308c.061.301.226.325.47.276zm-3.1-29.125a2.231 2.231 0 0 1-.081.21c-.11.228-.262.455.1.612.048.02.054.14.079.215a.591.591 0 0 0 .057.182c.182.225.373.442.56.663.088.1.172.1.254-.008-.1-.083-.227-.147-.269-.246a1.03 1.03 0 0 1-.012-.378l-.093-.025c-.318-.091-.326-.118-.182-.389.108-.206.2-.42.3-.621-.326-.279-.326-.279-.712-.213zm-2.216 4.229a5.7 5.7 0 0 0-.392-.509.375.375 0 0 0-.277-.107 1.732 1.732 0 0 0-.861.245 1.339 1.339 0 0 0-.165.173c.12.248.247.4.533.344.308-.057.625-.064.938-.1a2.108 2.108 0 0 0 .225-.049zm2.945 6.386c-.211-.124-.3-.057-.354.1a2.934 2.934 0 0 1-.272.739 2.983 2.983 0 0 0-.447 1.187c-.041.189.007.4-.191.536a.188.188 0 0 0 0 .169c.058.03.168.048.2.015.11-.106.253-.226.279-.36a6.6 6.6 0 0 0 .044-.884c.2-.013.279-.2.331-.416a3.626 3.626 0 0 1 .161-.447c.079-.21.159-.418.245-.638zm2.462 16.817l.111-.046.235-1.755-.7.337c-.015.343.384.46.3.815l-.62-.6c-.194.5-.192.512.105.783a.456.456 0 0 0 .08 0c.294-.053.284-.051.33.242.01.078.098.149.155.224zm5.262-20.755a.292.292 0 0 1 .1-.013c.206.044.3-.107.357-.243.077-.17-.1-.229-.2-.281-.392-.186-.788-.365-1.188-.532a.279.279 0 0 0-.426.2c.283.162.556.309.821.472.3.187.276.532.4.831.038-.143.083-.283.133-.434zm-4.98 3.755a.984.984 0 0 0-.373 1.251c.079.142.184.161.281.047a.649.649 0 0 1 .369-.263.2.2 0 0 0 .131-.314.883.883 0 0 1-.048-.192.646.646 0 0 0 .574-.53c-.372-.2-.437-.185-.566.156-.087.231-.17.462-.256.693a1.2 1.2 0 0 0-.113-.848zm35.974 31.524c.147-.156.176-.429.433-.432a2.854 2.854 0 0 1 .6.113 1.635 1.635 0 0 0-.487-1.651c-.045.142-.138.284-.119.406a.547.547 0 0 1-.117.4 2.668 2.668 0 0 0-.314 1.164zm-3.555-13.192c.192.166.327.279.458.4a.368.368 0 0 0 .549-.033 1.387 1.387 0 0 0 .208-1.417c-.162.156-.305.281-.432.421a.5.5 0 0 1-.34.209c-.218.031-.457.158-.447.42zm-21.72 10.359c.408-.185.482-.549.589-.917l.5.232c.094-.436.092-.432-.228-.618-.108-.064-.234-.127-.217-.307l.354-.113.048-.436a1.977 1.977 0 0 0-1.045 2.158zm1.208.939c.3-.13.447-.338.323-.541a3.992 3.992 0 0 0-.6-.728.235.235 0 0 0-.4.072 8.854 8.854 0 0 0-.434.928c-.039.105.046.258.083.429.3-.188.527-.338.406-.691-.015-.043.058-.117.118-.227zm-9.488-31.813c.025.234.166.223.3.239a.74.74 0 0 1 .3.074 4.731 4.731 0 0 1 .427.346 2.279 2.279 0 0 0 .241 1.048l.323-.4-.267-.2.07-.029c-.046-.314-.092-.627-.142-.98l.4.179c.285-.274.285-.274.06-.66a6.013 6.013 0 0 1-.806.307 6.412 6.412 0 0 1-.911.076zm7.908 30.467l-.1-.037a.808.808 0 0 0-.146.214 3.134 3.134 0 0 0-.166 1.33c.085.481.167.966.3 1.435a8.344 8.344 0 0 0 .42 1.022 1.468 1.468 0 0 0 .155.221l.175-.542a.577.577 0 0 1-.395-.561c0-.209.087-.458-.2-.58-.028-.012-.029-.1-.032-.15-.026-.394-.051-.788-.072-1.182a.279.279 0 0 1 .034-.151 1.391 1.391 0 0 0 .022-1.019zm7.645 8.191c.111-.13.213-.242.3-.363a.3.3 0 0 0 .071-.173c-.022-.549-.053-1.1-.083-1.7-.487.381-.281.9-.37 1.326-.256.021-.309-.123-.359-.283a.685.685 0 0 0-.531-.486 1.123 1.123 0 0 0 .045.823c.055.2.217.238.38.309a1.188 1.188 0 0 1 .328.274 2.832 2.832 0 0 1 .214.272zm-15.733-35.595c.245.3.527.175.779.087a.734.734 0 0 0 .48-.542c.062-.27-.107-.426-.384-.373-.089.017-.173.058-.262.079-.344.083-.688.179-1.037.233a.661.661 0 0 1-.359-.12 1.276 1.276 0 0 1-.227-.2c-.354.284-.344.521.01.68a.705.705 0 0 0 .934-.121 1.752 1.752 0 0 1 .129-.121c-.035.188-.054.299-.069.398zm34.674 28.359l.479 1.619c.147-.014.287-.071.367-.024s.11.2.162.3l.146-.12a1.976 1.976 0 0 1 .182-.15c.266-.174.323-.3.133-.526a.871.871 0 0 1-.172-.507c-.017-.131-.029-.263-.039-.4a.49.49 0 0 0-.351-.433c-.051.161-.1.307-.145.453l-.074-.009-.106-.553-.582.343zm.922-15.791c.264.209.518.416.78.614a.936.936 0 0 0 1.06.033.412.412 0 0 0 .126-.147c.089-.178.2-.379.054-.557-.2-.236-.392-.534-.75-.523a5.245 5.245 0 0 0-.858.138.549.549 0 0 0-.417.442zm1.862 14.66c-.2.049-.35.078-.5.129a1.038 1.038 0 0 0-.31.169c-.192.158-.19.272 0 .448s.359.312.527.479c.109.106.168.233-.007.379-.2-.21-.326-.5-.651-.517a1.738 1.738 0 0 0 .444 1.685c.107-.232.214-.451.312-.673a6.754 6.754 0 0 0 .3-.729c.072-.234.154-.44.412-.5a.612.612 0 0 0-.034-.149c-.162-.239-.327-.477-.495-.719zm-38.4-29.058l.023.081-.055.447c.093.1.185.21.285.31a.716.716 0 0 0 .238.194 1.539 1.539 0 0 0 1.509-.463.527.527 0 0 0-.281-.783 3.034 3.034 0 0 0-1.256.03 2.676 2.676 0 0 0-.465.185zm-1.619-.119c.3.092.53.048.67-.222.021-.039.119-.036.18-.054a1.058 1.058 0 0 0 .222-.077c.141-.083.217-.347.125-.45-.113-.128-.243-.069-.357 0a5.215 5.215 0 0 0-.715.492 12.561 12.561 0 0 0-1.209 1.06.572.572 0 0 1-.165.105c-.2.108-.391.22-.591.318a.781.781 0 0 0-.412.512 4.808 4.808 0 0 1-.342 1.036c-.149.286-.065.42.208.545.352-.206.2-.643.438-.921a1.53 1.53 0 0 0 .261-1.118l.531.241c.068-.083.2-.173.222-.286.059-.265.239-.345.461-.408a.719.719 0 0 0 .471-.772zm30.794 29.372a1.162 1.162 0 0 0 .309-.672c.025-.105.037-.236.178-.215a.217.217 0 0 1 .183.3c-.055.189-.137.37-.2.556-.034.092-.061.186-.095.29l.409.132c-.048.276-.415.241-.424.52.418-.045.58-.124.664-.335.162-.405.319-.813.473-1.222a1.054 1.054 0 0 0 .024-.224c-.251.041-.38.33-.658.2-.078-.148-.056-.261.137-.312.237-.062.471-.126.722-.193a2.593 2.593 0 0 0-.551-.989c-.534.072-.673.554-.886.9a1.661 1.661 0 0 0-.287 1.266zm-24.362-14.96c.026.027.053.053.077.081l.893-.535a.516.516 0 0 0 .6-.2.339.339 0 0 0-.109-.573c-.1-.051-.2-.111-.311-.171a2.471 2.471 0 0 1-.557.31 5.016 5.016 0 0 0-1.3.737c-.089.054-.206.194-.189.267.074.339-.145.531-.3.777a7.423 7.423 0 0 0-.444.944c-.017.04.03.1.024.154a.922.922 0 0 1-.056.256 2.252 2.252 0 0 1-.152.264.812.812 0 0 0 .594-.568.4.4 0 0 1 .217-.3c.237-.124.248-.221.154-.471.114-.217.208-.421.323-.613a3.081 3.081 0 0 1 .627-.951c.11-.087.194-.278.349-.135s-.043.257-.115.363a3.733 3.733 0 0 1-.325.371zm33.921-.158a4.461 4.461 0 0 1 .477-.654 8.506 8.506 0 0 1 .982-.795.889.889 0 0 0 .383-.815l-1.675.126a.336.336 0 0 0-.048.06 2.685 2.685 0 0 1-.66 1.189.2.2 0 0 0-.016.319c.179.19.364.374.557.571zm-28.207 10.288c.232.293.206.517-.078.725-.361.265-.4.363-.288.811.032.132.058.265.088.4l-.078.031-.319-.3c-.214.263-.237.307-.077.487a.684.684 0 0 1 .2.774l.894-.377a1.945 1.945 0 0 1 .249-1.155.907.907 0 0 0 .117-.368 1.353 1.353 0 0 1 .2-.75c.082-.136.161-.262.026-.433a.445.445 0 0 1 0-.332 1.385 1.385 0 0 1 .193-.344c.134-.2.291-.377.411-.58a.3.3 0 0 0-.013-.279c-.044-.049-.182-.027-.275-.015a.205.205 0 0 0-.123.095 2.132 2.132 0 0 0-.448 1.038 1 1 0 0 1-.173.708l-.146-.639-.364.507zm-9.222-7.526l.277.225.147-.223.061.036-.323.715-.308-.445c-.067.058-.109.089-.142.126a1.751 1.751 0 0 0-.39.975 1.345 1.345 0 0 0-.047.661 2.6 2.6 0 0 1 .141 1.007.39.39 0 0 0 .17.384 1.518 1.518 0 0 0 .112-.227c.175-.594.359-1.188.512-1.787a.887.887 0 0 1 .315-.531.809.809 0 0 0 .267-.42 15.81 15.81 0 0 1 .654-1.614 2.323 2.323 0 0 0 .193-.8l-.3-.079-.563.627c.321.29.061.537-.123.818l-.149-.192a1.2 1.2 0 0 0-.506.746zm.269-5.454a1.587 1.587 0 0 0-.846.332.267.267 0 0 0-.086.2c0 .182-.1.255-.253.305a.612.612 0 0 0-.448.556 1.315 1.315 0 0 1 .162.041.365.365 0 0 1 .08.057c-.133.12-.314.21-.334.326s.126.258.208.406a3.42 3.42 0 0 1-.358.159 1.3 1.3 0 0 0-.632.518.339.339 0 0 0-.046.411c.174.084.376-.14.529.1a1.4 1.4 0 0 0-.833.729l-.222-.229a.793.793 0 0 0-.447.7c.336-.1.62-.189.9-.28.033-.012.057-.053.083-.083.432-.5.866-1 1.295-1.5a5.781 5.781 0 0 0 1.246-2.746zm29.824 22.081a1.8 1.8 0 0 0 .178-.121c.229-.2.447-.413.683-.6a.48.48 0 0 1 .714-.015 4.615 4.615 0 0 1 .428.426c.144-.238.272-.467.42-.681.032-.047.134-.046.2-.066a.6.6 0 0 1 .04.21 1.357 1.357 0 0 1-.107.255c-.082.188 0 .265.222.29.039-.161.081-.309.11-.461.045-.233.076-.469.121-.7.07-.362.168-.721.214-1.085.04-.3.133-.533.472-.589l.031-.5-.906 1.006.2-.775a1.856 1.856 0 0 0-.8.744.536.536 0 0 1-.352.229 2.142 2.142 0 0 0-.766.4c-.236.168-.479.326-.71.5a.5.5 0 0 0-.251.514c.286-.145.613-.159.636-.544a5.444 5.444 0 0 1 1.532-.107c-.217.075-.351.192-.259.408-.234.085-.439.166-.649.232a.234.234 0 0 1-.186-.031.33.33 0 0 0-.4-.048c-.133.081-.317.155-.37.278a1.1 1.1 0 0 1-.4.471c-.115.083-.2.185-.043.363zm9.288-21.846a6.656 6.656 0 0 0 .4-2.1l-.978-.03a2 2 0 0 1-.46-.015.9.9 0 0 0-.707.171c-.12.065-.13.184-.084.314a2.156 2.156 0 0 1 .071.942c-.024.259-.007.521-.009.816zm-18.85 16.442a2.153 2.153 0 0 0 .146-.384.809.809 0 0 1 .43-.544 2.55 2.55 0 0 1 .643-.3.822.822 0 0 0 .451-.283 2.981 2.981 0 0 1 .5-.378c-.578-.213-.208-.579-.2-.944l-.652.575-.074-.04a.931.931 0 0 1 .105-.306 3.924 3.924 0 0 1 .652-.684c.231-.168.165-.373.17-.568s-.147-.288-.39-.326a1.767 1.767 0 0 0-.023.467.425.425 0 0 1-.165.455 2.478 2.478 0 0 0-.651.934 2.448 2.448 0 0 1-.168.252c-.033-.106-.067-.155-.06-.2a2.5 2.5 0 0 1 .625-1.342c.19-.207.2-.2-.022-.437a4.3 4.3 0 0 0-.608.423 1.028 1.028 0 0 0-.431.964.482.482 0 0 1-.224.5 2.586 2.586 0 0 1-.042-.422c-.014-.146.032-.322-.2-.436l-.352 1.09c.208-.02.413-.035.617-.06.163-.02.294 0 .3.2l-.3.248.21.289a1.2 1.2 0 0 1-.179.111.525.525 0 0 0-.377.545.745.745 0 0 1-.04.193c-.074.283-.073.286.307.408zm-14.143-15.279c.119.026.2.048.286.064.112.021.254 0 .332.064a.368.368 0 0 0 .533-.009.943.943 0 0 1 .281-.147.34.34 0 0 0 .242-.434.659.659 0 0 1 .256-.717.541.541 0 0 0 .208-.528.53.53 0 0 1 .047-.347c.238-.311.349-.709.7-.952a1.171 1.171 0 0 0 .509-.567.9.9 0 0 0-.683-.206 2.413 2.413 0 0 1-.545-.03.443.443 0 0 0-.495.279c-.072.193.056.3.192.388s.293.182.436.278a1.156 1.156 0 0 1 .144.14l-.039.065-.807-.319c-.18.288-.178.307.013.473.119.1.293.163.326.367l-.528-.123-.19.592h-.078c0-.108-.012-.216-.01-.325 0-.145.024-.291.02-.435a.23.23 0 0 0-.218-.242.2.2 0 0 0-.237.206c-.018.38-.2.794.2 1.1.053.041.067.134.135.28-.27-.137-.437-.086-.521.123l-.21-.089c-.085.246.151.288.2.431a.557.557 0 0 1 .01.121l-.245-.021-.262.521zm25.722 13.433c-.239-.274-.423-.5-.625-.7a.252.252 0 0 0-.234-.041c-.12.066-.078.184-.011.274.106.142.222.279.349.436-.3.069-.384-.151-.527-.267-.12-.1-.232-.189-.386-.079-.134.1-.29.146-.271.385.031.394-.013.793 0 1.189a.933.933 0 0 1-.332.77 1.859 1.859 0 0 0-.533 1.056c.472-.145.828-.312.982-.74.1-.273.169-.557.267-.83a9.043 9.043 0 0 1 .375-.961c.12-.243.324-.287.472-.1.192.239.371.169.6.082a.849.849 0 0 0 .552-.673c.07-.335.138-.673.22-1.006.023-.093.08-.239.143-.251.236-.047.21-.192.189-.35l-.333-.177c.276-.239.63-.31.8-.562-.146-.344-.279-.657-.415-.966a.3.3 0 0 0-.1-.108c-.11-.072-.223-.14-.347-.217l-.414 1.009c.068.207.353.371.311.755l-.6-.5c-.238.18-.245.186-.142.367.142.251.3.493.468.776-.265-.009-.261.161-.25.291-.31.182-.433-.279-.74-.165.192.433.655.735.543 1.312zm-3.777.965c-.336.094-.612.138-.76.4-.123.217-.211.453-.322.677-.022.044-.077.071-.157.14.027-.283.2-.5.033-.78a4.23 4.23 0 0 0-.489.341c-.314.291-.313.433-.034.767.051.061.106.118.156.18a1.037 1.037 0 0 1 .213.726l-.776-.877a.644.644 0 0 0-.107.875c.292.349.034.654.015 1l-.357-.347a4.955 4.955 0 0 1-.163.486c-.026.057-.113.087-.172.129a.592.592 0 0 1-.117-.179.8.8 0 0 1 .006-.274c.021-.171.047-.34.079-.509a6.274 6.274 0 0 1 .151-.686.3.3 0 0 0-.1-.38c-.477.158-.506.66-.784 1.039-.074-.473.256-.835.146-1.25a.555.555 0 0 0-.443.281c-.037.048-.037.172-.06.174-.342.029-.317.353-.45.545a.579.579 0 0 0-.02.633c.384.193.739-.273 1.095.033l-.068.69c.39.208.39.208.589.11.336-.165.4-.14.552.238.4-.069.836-.066.992-.585a.837.837 0 0 1 .161-.224c.123-.155.246-.309.349-.436a1.558 1.558 0 0 1-.085-.436c.049-.42.118-.839.2-1.254.026-.138.068-.332.166-.387.314-.175.379-.489.568-.858zm6.866-26.464c-.2-.129-.344-.215-.48-.31a6.787 6.787 0 0 1-.608-.442 2.187 2.187 0 0 0-1.272-.593c-.551-.044-1.1-.037-1.657-.061-.211-.009-.422-.041-.685-.068-.124.145-.28.343-.453.524a2.086 2.086 0 0 1-.526.472c-.5.239-1.023.425-1.535.636a2.182 2.182 0 0 0-.27.155l.031.091c.124 0 .25.011.375 0a6.166 6.166 0 0 1 1.342-.086 11.678 11.678 0 0 0 2.377 0c.7-.033 1.4-.06 2.1-.106a2.894 2.894 0 0 0 1.259-.209zm-40.506-.153a.564.564 0 0 0 .683.088 4.071 4.071 0 0 0 .83-.607 11.53 11.53 0 0 1 1.368-1.142 1.244 1.244 0 0 1 .283-.14 3.619 3.619 0 0 1 1.276-.234 5.064 5.064 0 0 1 1.261-.041.332.332 0 0 0 .193-.007 3.417 3.417 0 0 0 1.129-.724.519.519 0 0 0 .022-.724 1.386 1.386 0 0 0-.372-.288c-.592-.333-.6-.468-1.173.3a1.974 1.974 0 0 1-.186.191l-.062-.06.541-.772c-.31-.346-.616-.347-.859-.023l-.839 1.119c-.016-.563.6-.76.593-1.293a2.98 2.98 0 0 0-1.493.523 3.429 3.429 0 0 0-1.077 1.254 2.748 2.748 0 0 1-.263.337c-.025-.02-.051-.039-.076-.057l.555-.968a9.488 9.488 0 0 0-2.336 3.271zm36.617-2.75a.559.559 0 0 0-.6.033 2.026 2.026 0 0 1-.8.309 1.562 1.562 0 0 0-.567.131 7.516 7.516 0 0 1-2.127.615c-.247.047-.5.082-.74.128-.584.109-1.164.239-1.749.33-.745.115-1.494.208-2.242.3-.643.077-1.288.131-1.932.2-.353.037-.706.079-1.059.12-.184.022-.367.042-.55.072q-.739.12-1.48.252c-.027 0-.046.048-.1.107l.789.192a6.219 6.219 0 0 0 1.569.2c.434-.006.87.04 1.306.06.6.027 1.19.055 1.784.079a8.811 8.811 0 0 1 1.306.056 7.807 7.807 0 0 0 3.14-.105 7.863 7.863 0 0 0 1.564-.533 3.7 3.7 0 0 0 .941-.647 6.8 6.8 0 0 0 .653-.795c.159-.2.323-.386.484-.581.128-.158.253-.319.409-.514zm13.707-4.228a2.475 2.475 0 0 0-1.6-.021c-.392.159-.8.279-1.2.419-.062.022-.116.06-.178.082-.333.118-.662.255-1 .344-.455.12-.922.2-1.383.3-.206.044-.413.086-.618.136-.562.138-1.12.3-1.686.413a1.966 1.966 0 0 0-.678.283 5.151 5.151 0 0 1-1.022.52 5.61 5.61 0 0 0-1.41.579 1.221 1.221 0 0 1-.587.227 4.266 4.266 0 0 0-1.766.827c-.44.244-.646.725-1.026 1.032a.316.316 0 0 0-.1.273c.02.063.164.114.256.12a13.422 13.422 0 0 0 1.7.068 2.1 2.1 0 0 1 1.525.548.627.627 0 0 0 .546.147c.161-.028.32-.063.48-.1l.046.071-.422.315a1.12 1.12 0 0 0 .98.5c.646.01 1.293-.074 1.94-.123.37-.028.738-.074 1.108-.094.248-.013.5.036.748 0a3.978 3.978 0 0 1 2.131.322 12.107 12.107 0 0 0 1.519.454.5.5 0 0 0 .369-.054.668.668 0 0 0 .127-1.046 5.882 5.882 0 0 1-1.127-1.617.843.843 0 0 1 .057-.933 6.723 6.723 0 0 0 .36-.615c.236-.414.457-.837.709-1.241.3-.483.639-.941.935-1.428a4.367 4.367 0 0 0 .28-.722zm-27.717 22.148l.008.013a1.588 1.588 0 0 1 .413-.665c.23-.3.431-.632.664-.98-.4-.022-.614.256-.907.409a.437.437 0 0 1 .3-.535 4.749 4.749 0 0 0 .5-.248c.312-.151.627-.3.965-.459l-.063.425c.17-.131.309-.187.366-.29a6.338 6.338 0 0 0 .371-.825c.082-.213-.074-.377-.167-.549a8.479 8.479 0 0 1-.463-.875 12.55 12.55 0 0 0-1.284-2.665c-.031-.043-.048-.1-.075-.141-.263-.428-.528-.854-.789-1.283-.377-.621-.754-1.241-1.124-1.865a1.332 1.332 0 0 0-.439-.5 2.98 2.98 0 0 1-.462-.421c-.085-.083-.152-.187-.243-.261a8.571 8.571 0 0 0-1.242-1.138.287.287 0 0 1-.087-.269c.029-.067.166-.116.259-.121.289-.018.58 0 .869-.015.143-.005.286-.037.469-.062a4.176 4.176 0 0 1-1.05-.851 1.368 1.368 0 0 1 .454-.12c.225-.021.422-.069.46-.333-.2-.4-.62-.219-.914-.354-.04-.431.277-.416.542-.441l.072-.376c.238-.021.461-.036.683-.062.307-.036.336-.072.389-.427a2.611 2.611 0 0 0-.279-.274c-.1-.075-.235-.105-.33-.183a.924.924 0 0 1-.2-.274 1.525 1.525 0 0 1-.091-.279c-.124.038-.224.064-.319.1-.6.216-.645.2-1.049-.263a.682.682 0 0 0-.708-.1l-.106.329c-.061-.148-.1-.227-.127-.31s-.047-.191-.071-.3l-.714.4.008.012c.164-.2.321-.414.495-.61.1-.11.225-.2.086-.385a1.376 1.376 0 0 0-.259.053c-.269.11-.537.227-.8.354-.109.054-.229.15-.319.037a.73.73 0 0 1-.134-.389.864.864 0 0 1 .11-.311c-.4-.246-.4-.246-.672-.183-.086.107-.006.342-.246.343-.342-.321-.61-.425-.718-.269 0 .108.007.221.012.364-.34.071-.608.363-.973.273l-.047-.106.629-.376a1.039 1.039 0 0 0-.131-.265.629.629 0 0 1-.017-.961c-.2-.1-.351-.183-.509-.262-.18-.091-.207-.19-.085-.343.032-.041.1-.061.116-.105a.406.406 0 0 0 .043-.247c-.013-.045-.14-.09-.2-.075a2.734 2.734 0 0 0-.441.165c-.123.053-.222.067-.3-.114a1.181 1.181 0 0 1 .293-.122c.187-.022.245-.145.268-.3.03-.2.043-.412.069-.667a3.03 3.03 0 0 0-.348.124c-.187.094-.359.219-.551.3a.621.621 0 0 1-.911-.566 1.459 1.459 0 0 1 .132-.484 2.966 2.966 0 0 1 .188-.354 1.281 1.281 0 0 0-.3.063c-.24.136-.481.273-.709.429-.418.287-.611.241-.811-.237a1.1 1.1 0 0 0-.051 1.078l-.679.293c-.1-.264-.1-.264.391-.5-.045-.143-.092-.291-.142-.457a.771.771 0 0 1-.811-.767l-.47.209c-.046-.043-.073-.058-.082-.079-.075-.18-.114-.384-.4-.35-.055.006-.146-.134-.192-.222a1.206 1.206 0 0 1-.075-.275 1.617 1.617 0 0 0-1.244 1.025.5.5 0 0 1-.519.357l-.175-.309-.5.119c-.21-.17-.134-.467-.417-.544l-.37.623-.286-.182-.2.8-.237-.419a1.157 1.157 0 0 0-.212.781c.506-.086.983-.175 1.463-.245a1.841 1.841 0 0 1 1.05.122 2.932 2.932 0 0 0 1.07.18l.378-.768c.318.35-.134.67.02.985a3.875 3.875 0 0 1 1.678.438 1.045 1.045 0 0 0 1 .024 2.142 2.142 0 0 1 .235-.074l.026.066-.558.346c.166.342.715.238.761.7l-.439-.032c.1.257.178.478.259.7a2.66 2.66 0 0 1 .1 1.754c-.077.254-.134.514-.2.769a3.076 3.076 0 0 1-.611 1.321 1.365 1.365 0 0 0-.183.306 6.72 6.72 0 0 1-1.383 1.928c-.318.3-.617.624-.961.889-.416.321-.872.586-1.31.88a5.166 5.166 0 0 1-1.9.766 2.3 2.3 0 0 0-.542.225c-.048.025-.109.112-.1.156a.628.628 0 0 1-.3.641.476.476 0 0 0 .065.113.351.351 0 0 1 .071.52 6.38 6.38 0 0 0-.353.744.419.419 0 0 0-.041.147c-.008.2-.008.4-.011.62.112.025.253.054.4.085.186.335-.241.582-.119.912l1.118.273c-.12.167-.292.3-.3.446a1.543 1.543 0 0 1-.221.687 1.579 1.579 0 0 0 1.193.031c.135-.548.135-.548.357-.474-.025.2-.286.382-.05.627l1.035-.155c.033-.159.059-.339.109-.513a1.851 1.851 0 0 1 .18-.43c.061-.1.168-.128.284.015-.051.075-.111.156-.164.241a.983.983 0 0 0-.149.27c-.057.245-.1.495-.133.743-.051.344.079.48.423.391a1.317 1.317 0 0 1 1.375.483.5.5 0 0 0 .051.608 3.358 3.358 0 0 0 .731-.089 5.416 5.416 0 0 0 2.292-1.591 7.515 7.515 0 0 0 .882-1.452 6.551 6.551 0 0 1 .4-.81 5.282 5.282 0 0 0 .415-.768.478.478 0 0 0-.053-.589.989.989 0 0 1-.146-.36c-.008-.023.035-.062.054-.093l.294.112.4-.355c.034-.139-.076-.316.131-.456l.3.3c.054.054.1.133.164.158.19.075.39.13.635.21a.8.8 0 0 0 .272-.767c-.023-.183-.077-.363-.1-.547a1.3 1.3 0 0 1 .055-.3 3.366 3.366 0 0 1 .516.509 2.823 2.823 0 0 1 .222.616l.356-.267c.246.155.137.342.1.516-.027.144-.017.3.164.289.269-.022.567 0 .769-.252a.587.587 0 0 1 .164-.1c.172.333-.2.52-.177.717.163.2.27.345.394.475a.545.545 0 0 0 .246.158c.154.035.316.026.474.048.1.015.213.036.2.21h-.147c-.289.017-.579.025-.867.057a.224.224 0 0 0-.194.3l.268.112v.227l.41.181c-.1.239-.276.168-.422.179-.345.027-.421.11-.487.443a2.619 2.619 0 0 1-.514 1.275.465.465 0 0 0-.1.2 2.949 2.949 0 0 1-.99 1.749 12.372 12.372 0 0 1-2.112 1.542 1.91 1.91 0 0 1-1.021.367c-.054 0-.113.107-.188.186.281.125.517.229.8.357l.267-.214-.2-.284c.193-.085.354-.15.5.007.175.183-.091.3-.085.5l.741.238a4.347 4.347 0 0 1-.718 0 .421.421 0 0 0-.472.357l1.025.609.554-.212c.246.2.341.6.757.548a1.569 1.569 0 0 1 .031.3c-.039.347.3.441.435.67.079.133.19.126.31.119.2-.012.268.115.256.275a.654.654 0 0 0 .116.4c.128.223.25.432.547.478a.811.811 0 0 1-.312.051c-.3-.007-.4-.289-.625-.528-.128.489.17.792.256 1.143.437-.1.847-.207 1.265-.267a1.372 1.372 0 0 1 .615.067c.277.095.323.287.176.535-.061.1-.134.194-.2.284.377.427.107.795-.093 1.175.357.251.413.749.858.947a2.317 2.317 0 0 0 .143-.294c.211-.671.431-1.34.619-2.016a2.863 2.863 0 0 0 .242-1.153c-.027-.217.178-.332.373-.338a1.049 1.049 0 0 1 .53.1c.213.117.477.2.564.491a1.28 1.28 0 0 0-.976-.24c0 .182 0 .349-.007.543l.854.131v.081c-.071.015-.152.061-.21.041a.688.688 0 0 0-.534.1c-.21.092-.339.363-.242.512a.381.381 0 0 0 .21.168c.088.016.186-.05.283-.062a1.44 1.44 0 0 1 .254.016c-.128.3-.241.544-.34.8s-.281.521-.094.836c-.276.078-.24.34-.355.508-.141.206-.009.4.009.606l-.373-.022c-.053.135-.109.265-.157.4a2.6 2.6 0 0 1-.3.892 4.183 4.183 0 0 0-.317.552l.062-.854c-.423.272-.434.643-.521 1.011l.494.159c-.455.178-.78.373-.845.816.272.165.491-.037.782-.095a.83.83 0 0 1-1.011.433 7.144 7.144 0 0 0-.4 1.664c-.019.258-.121.569.107.756.249.2.058.516.258.719.085.087.12.209.247.284a.777.777 0 0 1 .443.847 1.2 1.2 0 0 0 .035.314 1.859 1.859 0 0 1-.008.746.993.993 0 0 0 .023.585c.043.118.236.179.359.269.019.013.022.046.042.095l-.249.2c.047.206.062.4.323.4.194.006.387.035.6.057a1.075 1.075 0 0 0-.1-.883l-.192.475a.3.3 0 0 1-.119-.368 5.667 5.667 0 0 0-.058-1.817.357.357 0 0 0-.091-.2c-.263-.258-.282-.333-.109-.631.06-.1.137-.2.2-.3a.4.4 0 0 0-.038-.5l-.334.815a1.227 1.227 0 0 1 .07-.972c-.368-.162-.336-.439-.219-.738a2.027 2.027 0 0 0 .092-.26.359.359 0 0 0 .011-.223.546.546 0 0 1 .059-.63.983.983 0 0 0 .086-.3.96.96 0 0 1 .092-.3q.385-.552.8-1.086a1.473 1.473 0 0 0 .356-.651.963.963 0 0 1 .207-.423.829.829 0 0 0 .178-.982.2.2 0 0 1 .1-.3c.242-.091.27-.305.321-.511a5.255 5.255 0 0 0 .5-.3c.217-.16.23-.311.075-.49a1.305 1.305 0 0 0-.567.8l-.273-.006a2.69 2.69 0 0 1 .193-.455 9.247 9.247 0 0 1 .672-.919c.15-.176.262-.318.15-.556-.023-.051.053-.148.084-.223a1.185 1.185 0 0 1 .223.11 1.324 1.324 0 0 1 .176.213c.05-.5-.478-.9-.015-1.32-.162-.3-.329-.535-.688-.556a.278.278 0 0 1-.286-.223 3.288 3.288 0 0 1 .6.006.481.481 0 0 0 .5-.128l.237.162c.227-.133.425-.23.6-.357.3-.213.585-.45.885-.665a.348.348 0 0 0 .186-.361 1 1 0 0 1 .032-.238l.382.179a.629.629 0 0 0 .392-.481.539.539 0 0 1 .378-.411 2.141 2.141 0 0 0 1.3-1.026c.133-.295.183-.374-.086-.554a1.354 1.354 0 0 1-.521-.859c-.035-.127-.059-.259-.1-.385a4.3 4.3 0 0 0-.509-.823c-.453.36-.539.524-.476.844l-.309.346c-.316-.262-.356-.261-.633 0a1.5 1.5 0 0 0-.258.246 7.1 7.1 0 0 1-1.133 1.259zm15.1-10.107a2.371 2.371 0 0 0-.348-.147c-.2-.05-.421-.057-.623-.116a8.325 8.325 0 0 0-2.234-.284c-.91-.013-1.822.053-2.73.085.087-.206.274-.193.441-.184a1.292 1.292 0 0 0 .945-.317 1.473 1.473 0 0 1 .293-.2 5.592 5.592 0 0 0 2.01-1.761 1.1 1.1 0 0 0 .2-.781 3.38 3.38 0 0 0-.615-.133c-.6-.019-1.211 0-1.817-.013-.779-.013-1.559-.045-2.338-.058a10.563 10.563 0 0 1-1.7-.156 10.821 10.821 0 0 0-1.694-.075c-.26 0-.523.066-.78.05-.527-.033-1.05-.1-1.574-.156a3.666 3.666 0 0 1-.979-.112 5.467 5.467 0 0 0-1.547-.232 2.239 2.239 0 0 0-.3.02c.246.132.414.211.57.307.1.061.229.131.262.225.078.228.253.249.437.271a2.873 2.873 0 0 1 2.078 1.237.553.553 0 0 0 .222.155c.326.147.67.261.982.433a5.434 5.434 0 0 0 1.16.4 5.144 5.144 0 0 1 .586.222 8.949 8.949 0 0 0 1.089.471 5.4 5.4 0 0 0 1.839.241c.131-.01.2.023.234.147-.229.064-.5-.048-.735.155a2.812 2.812 0 0 1 .259.216 2.052 2.052 0 0 1 .294.368c.035.06-.01.164-.019.248-.074-.037-.19-.055-.214-.113a.95.95 0 0 0-.512-.473.725.725 0 0 1-.258-.182.953.953 0 0 0-.584-.311 2.934 2.934 0 0 1-.924-.332 1.44 1.44 0 0 0-.367-.1 2.152 2.152 0 0 0 .057.356c.189.508.368 1.02.587 1.515a2.261 2.261 0 0 1 .168.881.689.689 0 0 1-.246-.28c-.137-.34-.26-.687-.378-1.035a2.889 2.889 0 0 0-.806-1.413l.134-.251c-.18-.083-.341-.169-.512-.232-.359-.13-.728-.23-1.08-.374-.474-.194-.928-.436-1.4-.627-.565-.228-1.135-.451-1.717-.625a8.537 8.537 0 0 0-2.194-.19c.236.124.5.165.719.292s.551.083.725.413a1.443 1.443 0 0 1-.309.015c-.217-.043-.433-.1-.647-.159a1.415 1.415 0 0 1-.414-.137 1.481 1.481 0 0 0-1.117-.12 6.4 6.4 0 0 0-.621.168c.207.2.352.35.5.491.359.332.73.655 1.08 1a1.929 1.929 0 0 1 .352.476 11.077 11.077 0 0 1 .819 1.344.1.1 0 0 0 .025.031 16.357 16.357 0 0 1 1.609 2.21c.181.286.311.6.474.9.114.207.27.394.367.608a4.708 4.708 0 0 0 .6 1.159 1.36 1.36 0 0 1 .158.362c.04.1.085.19.123.286a5.316 5.316 0 0 1 .266.7 2.523 2.523 0 0 0 .36.874c.141.2.235.44.363.656a3.218 3.218 0 0 0 .25.323 2.753 2.753 0 0 0 .234-.441c.127-.418.249-.838.343-1.264a1.021 1.021 0 0 0-.363-1.16 2.928 2.928 0 0 1-.369-.359c-.3-.3-.578-.615-.885-.9a2.562 2.562 0 0 1-.926-2.066c.021-.4.042-.8.081-1.191a1.942 1.942 0 0 1 .121-.5 2.149 2.149 0 0 0 .2-1.31c0-.021.042-.055.1-.132a1.217 1.217 0 0 1 .124.39c-.027.328-.085.652-.142.977-.027.153-.112.3-.123.45-.039.513-.054 1.028-.083 1.542a1.439 1.439 0 0 0 .358 1.067c.556.621 1.132 1.224 1.7 1.832a.647.647 0 0 0 .193.138 7.424 7.424 0 0 1 1.655 1 2.287 2.287 0 0 0 .27.168.433.433 0 0 0 .479.025 1.578 1.578 0 0 1 .61-.133 5.421 5.421 0 0 1 1.793.316 7.921 7.921 0 0 1 1.089.469c.061.029.1.114.174.21a.914.914 0 0 1-.186 0 1.289 1.289 0 0 1-.22-.091 6.891 6.891 0 0 0-2.4-.66.476.476 0 0 0-.526.215c.124.09.24.175.357.258a1.666 1.666 0 0 1 .775 1.442 2.061 2.061 0 0 0 .256 1.139.827.827 0 0 1 .16.774c-.042-.011-.075-.01-.09-.026a.421.421 0 0 1-.1-.123 3.8 3.8 0 0 1-.534-1.725 1.225 1.225 0 0 0-.37-1.018 3.735 3.735 0 0 0-.865-.552 3.714 3.714 0 0 1-1.22-.8.97.97 0 0 0-.68-.329 7.951 7.951 0 0 1-.16.836c-.154.507-.329 1.009-.514 1.506a.783.783 0 0 0 0 .619 1.707 1.707 0 0 0 .926.983c.358.133.707.29 1.059.437a.229.229 0 0 1 .1.062c.255.368.732.345 1.053.6.63.068 1.213.34 1.863.359a4 4 0 0 0 2.8-.87c.281-.233.552-.479.844-.735-.173-.243-.312-.452-.465-.648a5.489 5.489 0 0 0-.489-.574c-.19-.183-.426-.32-.608-.509-.166-.171-.48-.154-.564-.425.033-.027.043-.041.053-.041a.277.277 0 0 1 .113.009 4.581 4.581 0 0 1 1.845 1.529 6.051 6.051 0 0 0 .4.487 9.673 9.673 0 0 1 2.231-1.731 3.727 3.727 0 0 0-.092-.46 8.084 8.084 0 0 0-1-2.058 3.835 3.835 0 0 0-1.192-1.356c-.359-.2-.716-.405-1.088-.58a3.734 3.734 0 0 0-.715-.232c-.527-.128-1.059-.236-1.588-.361a1.169 1.169 0 0 1-.751-.6 4.262 4.262 0 0 1-.466-1.59c0-.039.058-.086.126-.178.185.517.384.966.5 1.437a1.113 1.113 0 0 0 .627.712 3.786 3.786 0 0 0 1.248.318 5.82 5.82 0 0 1 1.553.46 3.587 3.587 0 0 1 1.291.836c.241.294.462.606.684.914a3.636 3.636 0 0 1 .342.534c.172.356.323.724.475 1.088a1.717 1.717 0 0 1 .223.634c-.028.7.5.972.941 1.314a.213.213 0 0 0 .338-.067.793.793 0 0 0 .177-.513.866.866 0 0 1 .673-.915 1.254 1.254 0 0 0 .148-.056c.575-.284 1.119-.578 1.293-1.288a3.181 3.181 0 0 0 .2-1.745 1.2 1.2 0 0 1-.05-.392.443.443 0 0 1 .311-.461c.268-.069.543-.112.817-.163.218-.04.44-.066.657-.115.194-.044.378-.126.572-.168a2.909 2.909 0 0 0 1-.344 3.515 3.515 0 0 0 .844-.644c.128-.15.29-.273.423-.42a3.611 3.611 0 0 0 .961-1.574.669.669 0 0 1 .166-.308c.409-.414.807-.844 1.253-1.215a2.016 2.016 0 0 0 .573-1.192c.073-.294-.188-.436-.352-.615-.036-.039-.05-.1-.087-.132a.724.724 0 0 0-.252-.184 11.471 11.471 0 0 0-1.549-.352 5.413 5.413 0 0 1-1.166-.211 1.524 1.524 0 0 0-.348-.085q-1.084-.1-2.169-.18a.781.781 0 0 0-.316.021 5.015 5.015 0 0 1-1.638.206.6.6 0 0 0-.307.047.4.4 0 0 1-.408.012.689.689 0 0 0-.814.2.264.264 0 0 1-.164.089 9.087 9.087 0 0 1-.988.075c-.366 0-.731-.063-1.1-.076a2.62 2.62 0 0 0-.7.051c-.187.047-.382-.084-.487-.039a1.646 1.646 0 0 1-.774.076c-.14-.005-.314 0-.361.179a2.519 2.519 0 0 1-.5.842 4.726 4.726 0 0 1-1.184 1.223c-.235.149-.473.291-.7.449a.263.263 0 0 0-.095.189c0 .037.089.085.146.108a.435.435 0 0 0 .156.006c.357 0 .715-.014 1.07.009.489.033.979.073 1.461.152.417.068.823.2 1.236.3.163.037.177.133.136.265zm-5.983 18.964a.378.378 0 0 1 .28-.42c.259-.091.505-.222.763-.319a.258.258 0 0 0 .2-.3 1.323 1.323 0 0 0-.018-.275.413.413 0 0 1 .143-.5.4.4 0 0 0 .151-.43l-.3-.062a3.264 3.264 0 0 1 .543-.654 2.354 2.354 0 0 0 .618-.805 1.091 1.091 0 0 0-.044-1.136c-.114.065-.2.12-.3.166a3.564 3.564 0 0 1-.607.286c-.3.082-.428-.082-.337-.379.028-.092.069-.182.1-.272l-.064-.068c-.083.039-.226.061-.241.117-.065.245-.276.353-.426.517a.408.408 0 0 0-.127.2 1.182 1.182 0 0 1-.553.791.759.759 0 0 0-.292.455 1.945 1.945 0 0 1-.106.383.807.807 0 0 0 .116.81c.518.008.494-.058.56-.457.069-.423.465-.684.455-1.119 0-.023.054-.048.082-.072l.741-.591c.3.076.229.408.407.628-.39.129-.117.5-.335.716-.049-.136-.084-.244-.129-.349a.184.184 0 0 0-.265-.1 2.472 2.472 0 0 0-.38.808.085.085 0 0 0 .021.034c.112.124.055.229-.008.36a.9.9 0 0 0-.065.381c0 .18.031.36.05.554-.381.076-.2-.354-.423-.426l-.635.606-.251-.2-.28.239-.267-.709.392-.008c.021-.34.1-.679-.314-.874-.172.216-.44.347-.471.658-.026.261-.048.522-.072.783h-.074l-.084-.315-.387.35-.379-.517c-.006-.009-.024-.009-.076-.026l-.232.222.281.2a.8.8 0 0 0-.468.738c-.008.293.117.409.41.379.089-.009.178-.024.3-.042-.221.274.246.275.119.535a1.944 1.944 0 0 0-1.148.993c.244 0 .441.017.638.008a3.663 3.663 0 0 0 .631-.068 3.443 3.443 0 0 0 .5-.2l.031.074c-.063.041-.123.087-.189.123a4.448 4.448 0 0 1-1.177.335 5.774 5.774 0 0 0-1.053.332c-.287.123-.537.331-.816.475a1.006 1.006 0 0 0-.565.523 1.431 1.431 0 0 1-.571.637.569.569 0 0 0-.274.524l.57-.128.288.573a3.5 3.5 0 0 0 .336-.1c.25-.1.471-.156.661.128a.261.261 0 0 0 .385.036c.312-.221.632-.434.943-.659a4.426 4.426 0 0 0 .359-.336 1.4 1.4 0 0 1-.347-.052c-.07-.034-.115-.117-.17-.179.071-.045.14-.128.212-.131.436-.018.872-.016 1.306-.02l-.687.281a.8.8 0 0 0 .721-.18.928.928 0 0 0-.045-.1.262.262 0 0 1 .3-.232 1.385 1.385 0 0 0 1.177-.45 1.306 1.306 0 0 1 .345-.262.4.4 0 0 1 .251-.081c.2.044.284-.087.391-.207.156-.177.325-.343.486-.516.071-.077.134-.161.2-.241s.128-.211.2-.218c.093-.009.2.084.328.148.3-.218.612-.435.907-.679a.514.514 0 0 0 .165-.331.579.579 0 0 1 .286-.47c.171 0 .284.19.464.056a5.835 5.835 0 0 0 1.33-1.125 1.7 1.7 0 0 0 .348-1.1l-.468.14a.183.183 0 0 1 .071-.277c.088-.058.189-.1.281-.147.21-.116.4-.192.592.056.1.131.273.089.367-.054a1.877 1.877 0 0 0 .118-.252 2.06 2.06 0 0 1 .7-.944 1.5 1.5 0 0 0 .625-1.022 1.609 1.609 0 0 1 .633-.966c.059-.049.124-.091.2-.147a1.748 1.748 0 0 1-.146-.332 2.171 2.171 0 0 1-.011-.392c-.1-.05-.179-.091-.259-.134a.72.72 0 0 1-.279-1.1c.129-.194.236-.4.359-.617a4.977 4.977 0 0 0-.4-.3c-.162-.1-.346-.038-.332.123.034.385-.414.6-.325.987 0 .017-.054.044-.078.071-.224.241-.458.472-.666.726-.451.552-.889 1.116-1.334 1.674-.131.165-.28.318-.4.49s-.14.4-.413.387a2.079 2.079 0 0 1-.859.553c-.012.005-.03.009-.034.019-.028.052-.053.106-.078.16.054.023.111.071.164.065.166-.015.311-.168.585-.079-.227.126-.381.222-.542.3a.556.556 0 0 0-.375.659.622.622 0 0 1-.178.578c-.112-.161-.2-.293-.311-.448-.114.117-.238.2-.289.308a1.027 1.027 0 0 1-.622.519.5.5 0 0 0-.342.525.645.645 0 0 1-.5.714 1.16 1.16 0 0 0-.258.083c-.222.121-.437.255-.656.384zm-6.225-5.074l.006.012c-.115-.442.159-.721.427-1 .293-.3.6-.6.9-.893-.122-.252.029-.448.112-.646.09-.214.232-.409.13-.68-.065.026-.127.032-.157.065-.183.2-.366.406-.534.621-.183.233-.165.269.128.427.019.01.028.039.053.074l-.147.245a.566.566 0 0 0-.7.388 6.232 6.232 0 0 1-.329.676c-.192.3-.394.628-.844.443-.159.121-.258.35-.507.232a.925.925 0 0 0 .264-.684 1.687 1.687 0 0 1 .261.077c.443.213.467.206.669-.245.055-.124.1-.25.156-.375l-.082-.067a3.24 3.24 0 0 0-1 .622A1.135 1.135 0 0 0 507-452c-.371-.137-.413-.127-.792.193.072.219.141.447.224.67.1.272.123.277.412.217.094-.02.189-.034.283-.051a1.5 1.5 0 0 1-.252.362c-.141.2.2.21.172.4l-.353.042.063 1.076a1.8 1.8 0 0 1 1.341-.385c-.1.088-.142.155-.193.163-.365.051-.6.335-.889.506a.466.466 0 0 0-.194.312 7.334 7.334 0 0 0-.007.794.6.6 0 0 0 .677-.227c.093-.129.2-.25.283-.383.176-.266.23-.29.547-.213-.1.078-.245.139-.293.245-.157.352-.486.516-.761.728a.705.705 0 0 0-.317.423c-.029.127-.139.318-.237.334-.408.069-.37.391-.488.693a2.549 2.549 0 0 1 .513-.06 1.369 1.369 0 0 0 1.056-.352 1.142 1.142 0 0 1 .549-.287c.572-.057 1.03-.43 1.583-.523.016 0 .025-.043.026-.044l-.123-.446a4.451 4.451 0 0 1 .558-.3 4.293 4.293 0 0 0 1.706-1.262 1.118 1.118 0 0 1 .414-.288.615.615 0 0 0 .426-.52.8.8 0 0 1 .139-.354c.266-.325.548-.638.833-.948a1.249 1.249 0 0 1 .277-.156.92.92 0 0 1-.292.555c-.22.23-.448.452-.655.691-.253.293-.223.4.138.541a.392.392 0 0 0 .257 0c.45-.173.511-.262.544-.754a2.506 2.506 0 0 0-.026-.347 3.932 3.932 0 0 0 .4-.713c.116-.246.179-.527.455-.687l.29.226c.053-.256.085-.468.142-.675s.266-.356.23-.577a3.072 3.072 0 0 1-.437-.095 4.06 4.06 0 0 1-.433-.231 1.013 1.013 0 0 1-1.1-.069c-.114.182-.2.329-.307.495-.161-.211-.161-.211-.05-.523-.136-.1-.247-.119-.36.051-.051.077-.163.112-.248.166a2.946 2.946 0 0 0-.281.183c-.071.058-.11.162-.186.2a1.983 1.983 0 0 0-.805.93 3.549 3.549 0 0 0-.164.5.577.577 0 0 0-.583.263 2.074 2.074 0 0 1-.548.384c-.2.123-.428.213-.621.347a.766.766 0 0 0-.3.347.558.558 0 0 1-.308.333c-.158.086-.312.179-.486.281a.456.456 0 0 0-.562.065.4.4 0 0 1-.6-.016 2.132 2.132 0 0 1 .3-.211c.382-.182.771-.349 1.154-.53.336-.159.346-.2.145-.55.283-.282.568-.578.866-.858.54-.509.735-.735.783-.963a3.221 3.221 0 0 0-.755.518 6.086 6.086 0 0 1-.649.423zm13.338 6.465l-.106-.524-.1-.015c-.05.121-.154.253-.133.36.015.074.2.116.312.17a.093.093 0 0 0 .039 0c-.357.071-.5.361-.663.637-.084.145-.163.293-.268.483-.231-.207-.412-.069-.566.04a3.878 3.878 0 0 0-1 1 .525.525 0 0 0-.109.328.419.419 0 0 1-.25.453 7.6 7.6 0 0 1-.9.494.6.6 0 0 0-.431.456c-.047.218-.26.487-.453.43-.281-.083-.423.074-.613.165-.127.06-.3.065-.387.268.553-.016.989-.37 1.527-.3-.025.07-.085.051-.133.068-.372.139-.74.288-1.113.426a.96.96 0 0 0-.672.623c-.016.054-.1.087-.185.152-.055-.173-.1-.3-.145-.462-.506.173-.943.518-1.517.38a1.464 1.464 0 0 0 .733.763 3.091 3.091 0 0 1 .494.328c.124.1.256.175.4.1.2-.111.307-.007.452.107a.837.837 0 0 0 1.021.151c.113-.067.234-.121.351-.18a2.743 2.743 0 0 1 .392-.187c.34-.105.375-.151.312-.565a3.154 3.154 0 0 0-.368.12c-.29.131-.575.272-.86.412-.323.159-.328.165-.558-.09a.926.926 0 0 1-.122-.259c.094-.029.2-.1.279-.077a1.21 1.21 0 0 0 .88-.142 2.859 2.859 0 0 1 .7-.289 1.676 1.676 0 0 0 .575-.312c.269-.151.186-.4.208-.639.152-.068.3-.127.439-.2s.218-.26.511-.173l-.737.522.044.064c.412-.258.876-.424 1.279-.7l-.027-.074-.278.009a1.064 1.064 0 0 1 .224-.152c.579-.439 1.159-.877 1.725-1.332a2.382 2.382 0 0 0 .374-.457c.219-.3.413-.616.652-.9s.53-.519.778-.793c.2-.218.459-.412.392-.781-.014-.075.078-.194.152-.258.159-.136.353-.234.506-.377.256-.238.6-.391.75-.745a1.634 1.634 0 0 1-.131-.331 1.534 1.534 0 0 1 .019-.353c-.1-.033-.192-.059-.278-.09-.367-.134-.469-.276-.43-.655a3.311 3.311 0 0 1 .124-.658.4.4 0 0 0-.1-.462 1.073 1.073 0 0 0-.6.3 4.057 4.057 0 0 0-.4.575.5.5 0 0 0-.11.539c.12.349.079.408-.255.588a1.011 1.011 0 0 0-.33.266c-.141.19-.247.406-.375.607a2.487 2.487 0 0 1-.2.235c-.2-.29.021-.414.13-.578a4.511 4.511 0 0 1 .363-.565 3.122 3.122 0 0 1 .549-.378l-.155-.3c-.408.152-.521.479-.7.774-.13-.095-.271-.184-.387-.03a1.312 1.312 0 0 0-.418 1.025 1.146 1.146 0 0 1-.122.955zm-33.624-10.688a.749.749 0 0 0-.236.092c-.353.318-.689.655-1.049.963a2.526 2.526 0 0 1-.542.329.51.51 0 0 0-.319.542c.025.3.044.6.066.884-.051.2-.112.406-.154.614-.032.155-.029.317-.058.473-.091.465-.172.93-.238 1.4a4.557 4.557 0 0 1-.51 1.485 4.027 4.027 0 0 1-.823.9.564.564 0 0 1-.363.1 3.368 3.368 0 0 1-.582-.067.283.283 0 0 1-.238-.321 5.978 5.978 0 0 1 .095-.823c.047-.233.154-.454.207-.686q.19-.832.349-1.669a1.666 1.666 0 0 0-.034-.354c-.014-.419-.01-.837-.035-1.255a9.06 9.06 0 0 0-.119-1.027.89.89 0 0 1 .081-.532c.212-.5.4-1.008.589-1.515a.352.352 0 0 0 .028-.194.585.585 0 0 1 .178-.6 1.189 1.189 0 0 1 .288-1.259c.264-.362.592-.677.889-1.016a1.708 1.708 0 0 0 .24-.314c.095-.179.051-.266-.16-.388l.126-.547a2.4 2.4 0 0 0-.972 0c-.124-.155-.291-.317-.164-.549a4.736 4.736 0 0 1 .41-.538l-.749.046c-.133-.244-.227-.452-.03-.683.044-.053.027-.152.06-.219a.733.733 0 0 1 .173-.279c.336-.253.38-.366.256-.81-.125.03-.249.065-.376.088-.034.006-.074-.021-.123-.037-.14-.3.108-.411.269-.575.267-.273.52-.559.774-.844.03-.033.026-.1.051-.206a2.075 2.075 0 0 0-.436 0 5.22 5.22 0 0 1-2.169-.016c-.04-.007-.077-.025-.116-.03-.37-.044-.444.014-.527.412l-.2-.333a4.966 4.966 0 0 0-2.037.332c-.28.147-.58.253-.87.378a1.153 1.153 0 0 0-.684.783.878.878 0 0 1-.544-.808 3.262 3.262 0 0 1 .361-2 1.515 1.515 0 0 1 .33-.384 8.062 8.062 0 0 1 .832-.6c.293-.179.382-.489.55-.75.015-.022.013-.053.027-.074a3.761 3.761 0 0 0 .556-1.587 5.815 5.815 0 0 1 .5-1.283c.175-.384.376-.759.589-1.125.276-.478.571-.945.865-1.412a1.315 1.315 0 0 1 .241-.263.97.97 0 0 0 .324-.818.352.352 0 0 0-.14-.256.93.93 0 0 1-.434-.547.574.574 0 0 0-.5-.4 3.352 3.352 0 0 0-1.68.049 5.215 5.215 0 0 1-.738.116 2.864 2.864 0 0 0-.556.177 1.459 1.459 0 0 0-.326.222 1.129 1.129 0 0 1-.932.22 1.749 1.749 0 0 0-1.08.146 1.07 1.07 0 0 1-.816.056 1.178 1.178 0 0 0-.585-.031.834.834 0 0 1-.277.006.935.935 0 0 0-.958.555c-.085.13-.171.26-.3.451a1.821 1.821 0 0 1-.46-.988.445.445 0 0 1 .069-.263c.291-.356.468-.808.9-1.047a3.517 3.517 0 0 0 .354-.258.757.757 0 0 1 .813-.113 1.944 1.944 0 0 0 .74.054c.184 0 .367-.058.552-.07a1.875 1.875 0 0 0 .924-.314 3.848 3.848 0 0 1 .926-.333c.164-.051.336-.072.5-.11a.8.8 0 0 1 .152-.044 9.141 9.141 0 0 1 3.188.151c.222.079.433.186.711.308-.066-.158-.113-.257-.15-.361-.1-.284-.2-.569-.294-.854a2.2 2.2 0 0 0-.651-1.031 8.209 8.209 0 0 0-1.153-.754.991.991 0 0 0-.465-.062.837.837 0 0 1-.579-.22c-.176-.157-.371-.294-.536-.461a2.084 2.084 0 0 1-.539-.96 1.2 1.2 0 0 0-.857-.788c-.344-.133-.688-.265-1.036-.385-.551-.19-1.107-.365-1.657-.555a1.016 1.016 0 0 1-.338-.175c-.236-.211-.179-.439.13-.517a2.248 2.248 0 0 1 .474-.048 13.5 13.5 0 0 1 1.432-.02 4.21 4.21 0 0 1 1.688.405.465.465 0 0 1 .106.055 5.748 5.748 0 0 0 1.085.791.117.117 0 0 1 .055.057c.119.4.482.619.678.96.046.08.091.2.161.221.528.173.954.656 1.582.518a.886.886 0 0 1 .763.183 4.079 4.079 0 0 0 1.118.508 1.207 1.207 0 0 1 .772.789 1.756 1.756 0 0 1 .108 1.053 1.47 1.47 0 0 0-.023.186c.122.091.294.152.325.256a1.37 1.37 0 0 1-.022.5c-.009.1-.032.2-.057.343.468-.191.328-.56.375-.886.3.218.063.631.354.874.13-.237.242-.457.371-.666a.547.547 0 0 1 .242-.24c.217-.069.242-.223.243-.4v-.824l.29.093c.047-.18.082-.344.133-.5.074-.232.221-.361.343-.319s.162.229.091.464c-.159.531-.159.531-.1.782.115-.066.218-.166.33-.176.095-.008.2.089.274.126l.371-1.156a.786.786 0 0 1 0 .54.4.4 0 0 0 .236.519 4.41 4.41 0 0 0 .268-.383 2.233 2.233 0 0 1 .811-.906 1.019 1.019 0 0 0 .249-.253c.074-.092.129-.2.2-.3.148-.2.313-.287.42-.216a.5.5 0 0 1 .043.545c-.032.054-.067.107-.127.2l.314.05c.138.266-.326.28-.2.526l.92.9 1.179-1.174.032.033-.284.554a.335.335 0 0 0 .388-.068c.245-.2.485-.409.721-.621.085-.078.147-.223.287-.127a.249.249 0 0 1 .064.355c-.143.237-.3.467-.45.7-.071.108-.147.214-.229.333l.6-.022c0 .147-.007.249-.01.355a.533.533 0 0 0 .131.019 3.29 3.29 0 0 0 1.1-.437 2.123 2.123 0 0 1 1.226-.377c.185.394.156.493-.161.743-.207.162-.4.344-.639.557.332.085.549-.079.816-.1l-.919.61a1.134 1.134 0 0 0 .331.073c.194-.036.385-.1.577-.151a.616.616 0 0 1 .67.121l-.412.729c.282.186.528.04.771-.012.677.3.632.525.047.935a.946.946 0 0 1-.229.072c.177.149.311.248.427.364.2.2.2.206.02.455a1.9 1.9 0 0 0-.1.187 2.5 2.5 0 0 0 .4.047c.423-.02.845-.044 1.267-.09a.611.611 0 0 0 .331-.167c.3-.295.375-.292.563.073.519.033.519.033.613.582.352-.121.694-.247 1.042-.357a1.059 1.059 0 0 1 1.092.093c.057.047.175.03.264.028.141 0 .3 0 .3.171a.374.374 0 0 1-.2.255 3.952 3.952 0 0 1-.56.191c-.239.075-.486.132-.716.228s-.285.215-.2.4.207.224.434.137c.392-.149.777-.32 1.2-.495-.033.308-.4.324-.482.627.655 0 1.221-.357 1.865-.377.159.444-.414.555-.407.949.343.081.461.334.541.69a.681.681 0 0 0 .69.438 7.738 7.738 0 0 0 1.107-.088c.552-.076 1.1-.19 1.65-.261.459-.058.923-.076 1.385-.111a.67.67 0 0 0 .158-.005 15.367 15.367 0 0 1 3.069-.394 27.919 27.919 0 0 0 3.92-.641 11.3 11.3 0 0 0 1.094-.368c1.029-.39 2.061-.774 3.05-1.261.367-.181.756-.318 1.135-.472.5-.2 1-.413 1.507-.6.3-.11.608-.182.911-.275l2.545-.778a1.92 1.92 0 0 1 .346-.086 6.732 6.732 0 0 0 2.227-.555c.213-.1.457-.131.682-.213.283-.1.556-.237.841-.337.312-.109.632-.2.948-.289.1-.031.206-.054.3-.092.137-.054.265-.131.391.031.027.036.12.024.182.03a.8.8 0 0 1 .666 1.056 8.15 8.15 0 0 1-.487.863c-.073.126-.172.237-.237.368a4.331 4.331 0 0 1-.648.988 4.5 4.5 0 0 0-.526.931c-.093.176-.152.369-.247.544a.943.943 0 0 0 .129 1.077 5.747 5.747 0 0 0 .586.7 2.654 2.654 0 0 1 .656 1.352c-.149.19-.29.362-.422.54a.246.246 0 0 0 .011.355c.213.235.4.49.606.733a.91.91 0 0 1 .233.772 2.562 2.562 0 0 1-.809 1.716 3.25 3.25 0 0 0-.792 1.274.572.572 0 0 1-.061.146 4.553 4.553 0 0 0-.6 1.29.913.913 0 0 1-.13.245c-.287.343-.582.681-.875 1.021-.017.02-.043.034-.058.055a1.233 1.233 0 0 1-1 .6c-.282.013-.4.289-.457.542-.067.292-.079.6-.151.886-.151.6-.313 1.2-.495 1.8a1.071 1.071 0 0 1-.735.732c-.433.145-.844.356-.88.907 0 .026-.017.051-.02.077-.074.621-.526.881-1.035 1.078a4.406 4.406 0 0 1-.5.128.633.633 0 0 1-.53-.1 2.256 2.256 0 0 0-.364-.235c-.383-.158-.5-.329-.79.185.131.209.273.412.391.628a.559.559 0 0 1-.192.793c-.127.09-.249.187-.366.275.036.286.259.359.422.482.208.158.427.3.641.457.043.03.082.084.129.089.573.068.8.634 1.264.866a.712.712 0 0 1 .245.254.509.509 0 0 1-.19.827l-.5.3c.169.3.321.575.493.887l-.076.241a.575.575 0 0 0 .1.089c.046.025.1.032.147.056.429.223.48.42.213.822l-.128.191c.206.274.206.274.109.54a.747.747 0 0 1 .573.535.2.2 0 0 0 .056.1c.337.213.349.479.256.855a1.708 1.708 0 0 1-.574 1.125 1.083 1.083 0 0 0-.164.2 2.948 2.948 0 0 0 .16.266 3.429 3.429 0 0 1 .481 1.207c.016.055-.031.124-.033.187 0 .128-.044.294.019.378a.567.567 0 0 1-.087.826l.393.488-.506-.02c-.095.347.03.785-.385 1.025l.337.65-.38-.026c.027.12.058.218.071.319a2.518 2.518 0 0 1 0 .3l-.287-.01-.339.679.056.2c-.041.029-.06.054-.083.057a.961.961 0 0 0-.709.3c-.078.1-.192.078-.28-.008a2.268 2.268 0 0 1-.149-.179c-.265.026-.479.072-.524.39a1.161 1.161 0 0 1-.193.381c-.024.04-.1.095-.119.084-.222-.12-.186.156-.349.2-.346-.234-.166-.737-.446-1.038a.577.577 0 0 0-.242.483c-.084.679-.159 1.36-.248 2.039-.007.054-.1.1-.147.148-.041-.046-.112-.089-.116-.138a4.691 4.691 0 0 1 0-.485c-.155.067-.278.119-.415.176-.166-.16-.085-.3.015-.452.138-.2.255-.408.1-.656-.541-.1-.937.168-1.216.814-.169-.193-.352-.385-.512-.594a.6.6 0 0 1-.079-.3c-.016-.182-.013-.364-.018-.572a.846.846 0 0 0-.695.555c-.07.147-.131.321-.345.141-.026-.021-.118.022-.172.051-.287.163-.309.161-.519-.085-.034-.039-.071-.072-.143-.146l-.3.361.232.151a.408.408 0 0 1-.5.155c.05-.244.1-.469.149-.718a1.622 1.622 0 0 0-.794.093.487.487 0 0 1-.629-.153 1.455 1.455 0 0 0-.611-.331 1.088 1.088 0 0 1-.572-.332c-.046-.061-.121-.139-.183-.139-.387 0-.575-.281-.787-.534s-.262-.262-.555-.074c-.375.239-.587.141-.646-.3-.007-.051-.02-.1-.041-.2h-.9l.093-.717a1.6 1.6 0 0 0-.3.063c-.31.136-.357.11-.53-.18a1.239 1.239 0 0 0-.38-.395c-.076-.05-.227.014-.418.034-.028-.05-.093-.157-.15-.268-.154-.3-.261-.348-.593-.272a1.027 1.027 0 0 1-.235.029c-.448 0-.517-.079-.483-.527a.963.963 0 0 0-.012-.144c-.2.034-.385.078-.577.1s-.389.018-.631.026l.119-1.052-.562.1-.107-.524c-.3 0-.425.234-.585.467a1.421 1.421 0 0 1-.155-.179c-.053-.09-.065-.221-.14-.277a.923.923 0 0 1-.315-.841c.007-.5 0-.493-.469-.677a2.716 2.716 0 0 1-.274-.149c-.143.155-.282.311-.426.46-.108.113-.228.215-.333.33a2.278 2.278 0 0 0-.374.451 2.152 2.152 0 0 1-.548.666 1.359 1.359 0 0 0-.55 1.494c.146.535.219 1.089.354 1.628.1.385.249.756.361 1.136a13.959 13.959 0 0 0 1.173 2.556 1.946 1.946 0 0 1 .235.791 2.761 2.761 0 0 0 .582 1.419 3.087 3.087 0 0 1 .487 1.107 2.378 2.378 0 0 0 .23.543c.132.231.141.4-.079.544a5.351 5.351 0 0 1-.815.4.284.284 0 0 1-.348-.127.383.383 0 0 0-.565-.126.659.659 0 0 0-.244-.755c-.147-.152-.26-.335-.392-.5a4.944 4.944 0 0 0-.911-.875 2.009 2.009 0 0 1-.822-1.8 1.15 1.15 0 0 0-.183-.794 1.4 1.4 0 0 1-.1-.214c-.126-.26-.262-.516-.379-.78-.166-.375-.332-.752-.473-1.136s-.265-.8-.392-1.208a3.762 3.762 0 0 1-.123-.46 3.916 3.916 0 0 0-.3-.98 6.566 6.566 0 0 1-.363-1.212 1.205 1.205 0 0 1 .016-.508c.092-.454.218-.9.309-1.355a6.352 6.352 0 0 1 .518-1.5c.194-.405.328-.839.492-1.26.11-.283.228-.563.334-.847a2.523 2.523 0 0 0 .073-.291l-.617-.459a2.555 2.555 0 0 0-.306.366c-.193.329-.359.675-.545 1.008-.155.274-.338.533-.489.808a5.821 5.821 0 0 0-.37.782 1.537 1.537 0 0 0-.089.587 6.975 6.975 0 0 1-.189 1.414 4.664 4.664 0 0 0-.039.669c0 .749.016 1.5-.005 2.248a2.865 2.865 0 0 1-.176.686c-.062.214-.136.425-.2.637a2.07 2.07 0 0 1-.155.486 1.408 1.408 0 0 0 .14 1.7c.1.151.214.3.323.451a2.1 2.1 0 0 1 .214 1.5 2.1 2.1 0 0 0 .262 1.223.935.935 0 0 0 .281.306.344.344 0 0 1 .16.409.71.71 0 0 1-1.023.423 2.391 2.391 0 0 1-1.281-1.85 1.535 1.535 0 0 0-.41-.929.86.86 0 0 1-.188-.429 2.293 2.293 0 0 0-.465-1.036 3.264 3.264 0 0 1-.346-.663q-.207-.428-.4-.862a3.284 3.284 0 0 1-.18-.482c-.124-.474-.24-.949-.351-1.427a1.549 1.549 0 0 1-.008-.825c.218-.709.419-1.424.639-2.132a.536.536 0 0 0-.019-.525.431.431 0 0 1-.012-.3c.092-.4.184-.8.3-1.192.107-.354.249-.7.373-1.046a3.022 3.022 0 0 0 .13-.415 5.481 5.481 0 0 1 .9-2.148 3.923 3.923 0 0 0 .792-2.009 2.022 2.022 0 0 1 .134-.431l-.325-.379-.558.079a.819.819 0 0 1-.073-.83c.119-.284.04-.422-.262-.464a3.6 3.6 0 0 0-.476 0 4 4 0 0 1-.592-.024.505.505 0 0 1-.363-.8c.054-.091.13-.168.19-.255.153-.222.089-.362-.184-.412-.1-.019-.211-.027-.312-.053-.346-.085-.427-.189-.447-.548 0-.077-.015-.155-.025-.25-.377-.018-.824.1-.879-.457a1.924 1.924 0 0 0-1.257.2 3.192 3.192 0 0 0-1.258.882.532.532 0 0 1-.46.26.5.5 0 0 0-.3.167 16.1 16.1 0 0 0-1.369 1.383 3.059 3.059 0 0 0-.818 1.768 3.41 3.41 0 0 1-.486 1.365c-.085.162-.149.337-.23.5a2.256 2.256 0 0 1-.2.338.254.254 0 0 1-.352.078c-.13-.062-.269-.1-.4-.155a.912.912 0 0 1-.084-.73 2.748 2.748 0 0 0 .031-.314 3.83 3.83 0 0 1 .107-.659 1.353 1.353 0 0 0 .033-.886 1.248 1.248 0 0 1 .088-.728 5.327 5.327 0 0 0 .251-1.118 5.421 5.421 0 0 1 .938-2.342 4.523 4.523 0 0 1 1.491-1.34c.337-.2.647-.448.972-.677a3.16 3.16 0 0 0-.389-1.118 2.309 2.309 0 0 0-.52.043c-.192.061-.443.03-.551.252a1.314 1.314 0 0 0-.169.524 2.162 2.162 0 0 1-.429 1.177 2.511 2.511 0 0 0-.4 1.149" transform="translate(-473.915 484.601)"/>
</svg>
