<svg xmlns="http://www.w3.org/2000/svg" id="forest" width="98.191" height="76.046" viewBox="0 0 98.191 76.046">
    <defs>
        <style>
            .cls-1{fill:#0a5b36}.cls-2{fill:#0f7a4f}.cls-4{fill:#158f5e}.cls-5{fill:#d2f0a2}.cls-6{fill:#bcea73}.cls-7{fill:#a3e440}.cls-9{fill:#99d53b}.cls-10{fill:#88ba31}
        </style>
    </defs>
    <g id="Group_57" transform="translate(34.3 36.839)">
        <g id="Group_56">
            <g id="Group_54" transform="translate(12.463 22.038)">
                <path id="Path_108" d="M245.278 380.969a1.44 1.44 0 0 1-1.44-1.44v-13.347a1.44 1.44 0 0 1 2.88 0v13.347a1.44 1.44 0 0 1-1.44 1.44z" class="cls-1" transform="translate(-243.838 -364.742)"/>
            </g>
            <g id="Group_55" transform="translate(27.378 15.098)">
                <path id="Path_109" d="M323.05 352.277a1.44 1.44 0 0 1-1.44-1.44v-20.845a1.44 1.44 0 1 1 2.88 0v20.845a1.44 1.44 0 0 1-1.44 1.44z" class="cls-1" transform="translate(-321.61 -328.552)"/>
            </g>
            <circle id="Ellipse_8" cx="12.891" cy="12.891" r="12.891" class="cls-2"/>
            <path id="Path_110" fill="#0c6842" d="M225.105 264.927a12.891 12.891 0 0 1-20.924 10.081 12.893 12.893 0 0 0 11.681-22.449 12.9 12.9 0 0 1 9.243 12.368z" transform="translate(-199.323 -252.036)"/>
        </g>
    </g>
    <g id="Group_58" transform="translate(54.184 6.041)">
        <circle id="Ellipse_9" cx="12.891" cy="12.891" r="12.891" class="cls-4"/>
        <path id="Path_111" d="M350.049 102.126a12.9 12.9 0 0 1-15.881 12.542 12.895 12.895 0 0 0 0-25.084 12.9 12.9 0 0 1 15.881 12.542z" class="cls-2" transform="translate(-324.266 -89.235)"/>
    </g>
    <g id="Group_59" transform="translate(71.071 23.599)">
        <circle id="Ellipse_10" cx="12.891" cy="12.891" r="12.891" class="cls-4"/>
        <path id="Path_112" d="M436.423 193.683a12.9 12.9 0 0 1-16.278 12.44 12.893 12.893 0 0 0 1.688-25.22 13.079 13.079 0 0 1 1.7-.111 12.891 12.891 0 0 1 12.89 12.891z" class="cls-2" transform="translate(-410.641 -180.791)"/>
    </g>
    <g id="Group_61" transform="translate(65.624 17.258)">
        <g id="Group_60">
            <path id="Path_113" d="M354.45 356.2a1.44 1.44 0 0 1-1.44-1.44v-19.229a1.44 1.44 0 0 1 2.88 0v19.226a1.44 1.44 0 0 1-1.44 1.443z" class="cls-2" transform="translate(-350.935 -298.349)"/>
            <path id="Path_114" d="M352.251 189.856a10.063 10.063 0 0 1-10.063-10.063v-22.008a10.063 10.063 0 0 1 20.126 0v22.008a10.063 10.063 0 0 1-10.063 10.063z" class="cls-5" transform="translate(-342.188 -147.722)"/>
            <path id="Path_115" d="M394.3 157.784v22.008a10.069 10.069 0 0 1-12.536 9.757 10.068 10.068 0 0 0 7.592-9.757v-22.008a10.068 10.068 0 0 0-7.592-9.756 10.065 10.065 0 0 1 12.536 9.756z" class="cls-6" transform="translate(-374.176 -147.722)"/>
        </g>
        <path id="Path_116" d="M376.32 250.209a1.44 1.44 0 0 0-2.036 0l-.731.731v-8.774a1.44 1.44 0 0 0-2.88 0v2.153l-1.452-1.452a1.44 1.44 0 0 0-2.036 2.036l3.488 3.489v30.125a1.44 1.44 0 1 0 2.88 0v-23.5l2.767-2.767a1.44 1.44 0 0 0 0-2.041z" class="cls-7" transform="translate(-362.05 -222.889)"/>
    </g>
    <g id="Group_63" transform="translate(14.368)">
        <g id="Group_62">
            <path id="Path_117" d="M84.985 91.947a10.063 10.063 0 0 1-10.063-10.063V67.8a10.063 10.063 0 0 1 20.126 0v14.084a10.063 10.063 0 0 1-10.063 10.063z" class="cls-5" transform="translate(-74.922 -57.735)"/>
            <path id="Path_118" d="M125.883 67.8v14.087a10.069 10.069 0 0 1-12.809 9.683 10.064 10.064 0 0 0 7.316-9.683V67.8a10.071 10.071 0 0 0-7.316-9.683 10.065 10.065 0 0 1 12.809 9.683z" class="cls-6" transform="translate(-105.758 -57.737)"/>
        </g>
        <path id="Path_119" d="M109.054 118.916a1.44 1.44 0 0 0-2.036 0l-.731.731v-8.776a1.44 1.44 0 1 0-2.88 0v2.153l-1.452-1.452a1.44 1.44 0 1 0-2.036 2.036l3.488 3.488v56.644a1.44 1.44 0 1 0 2.88 0v-50.02l2.767-2.767a1.44 1.44 0 0 0 0-2.036z" class="cls-7" transform="translate(-94.784 -99.518)"/>
    </g>
    <g id="Group_65" transform="translate(23.259 22.188)">
        <circle id="Ellipse_11" cx="15.278" cy="15.278" r="15.278" fill="#1ca56f"/>
        <path id="Path_120" d="M187.8 188.709a15.281 15.281 0 0 1-22.025 13.71 15.281 15.281 0 0 0 3.958-28.733 15.3 15.3 0 0 1 18.067 15.023z" class="cls-4" transform="translate(-157.241 -173.431)"/>
        <path id="Path_121" d="M199.355 207.789a1.44 1.44 0 0 0-2.036 0l-1 1v-1.662a1.44 1.44 0 1 0-2.88 0v15.238a1.44 1.44 0 0 0 2.88 0v-9.5l3.034-3.035a1.439 1.439 0 0 0 .002-2.041z" class="cls-2" transform="translate(-179.603 -199.499)"/>
        <g id="Group_64" transform="translate(13.838 36.923)">
            <path id="Path_122" d="M194.881 382.508a1.44 1.44 0 0 1-1.44-1.44V367.4a1.44 1.44 0 0 1 2.88 0v13.672a1.44 1.44 0 0 1-1.44 1.436z" class="cls-2" transform="translate(-193.441 -365.956)"/>
        </g>
    </g>
    <g id="Group_66" transform="translate(46.781 3.049)">
        <path id="Path_123" d="M264.229 111.315c0 17.706-4.543 17.39-10.147 17.39s-10.147.316-10.147-17.39 5.726-37.683 10.147-37.683 10.147 19.977 10.147 37.683z" class="cls-7" transform="translate(-243.935 -73.632)"/>
        <path id="Path_124" d="M264.229 111.315c0 17.706-4.543 17.39-10.147 17.39s-10.147.316-10.147-17.39 5.726-37.683 10.147-37.683 10.147 19.977 10.147 37.683z" class="cls-7" transform="translate(-243.935 -73.632)"/>
        <path id="Path_125" d="M295.857 111.317c0 17.707-4.542 17.391-10.146 17.391-.913 0-1.8.009-2.642-.055 4.322-.321 7.5-2.518 7.5-17.336 0-14.3-3.739-30.09-7.5-35.628.9-1.318 1.793-2.054 2.642-2.054 4.421 0 10.146 19.977 10.146 37.682z" class="cls-9" transform="translate(-275.565 -73.634)"/>
        <path id="Path_126" d="M277.9 234.319a1.44 1.44 0 0 0-2.036 0l-2.635 2.635v-12a1.44 1.44 0 0 0-2.88 0v3.01l-2.048-2.048a1.44 1.44 0 1 0-2.036 2.036l4.084 4.084v33.349a1.44 1.44 0 0 0 2.88 0v-24.36l4.671-4.671a1.44 1.44 0 0 0 0-2.036z" class="cls-10" transform="translate(-261.64 -194.77)"/>
    </g>
    <g id="Group_67" transform="translate(1.542 24.628)">
        <path id="Path_127" d="M8.038 215.177c0 13.638 6.147 13.395 13.73 13.395s13.73.243 13.73-13.395-7.748-29.025-13.73-29.025-13.73 15.387-13.73 29.025z" class="cls-7" transform="translate(-8.038 -186.152)"/>
        <path id="Path_128" d="M8.038 215.177c0 13.638 6.147 13.395 13.73 13.395s13.73.243 13.73-13.395-7.748-29.025-13.73-29.025-13.73 15.387-13.73 29.025z" class="cls-9" transform="translate(-8.038 -186.152)"/>
        <path id="Path_129" fill="#8dc637" d="M81.266 215.177c0 13.639-6.146 13.4-13.729 13.4-.986 0-1.945 0-2.871-.019 6.2-.152 10.858-1.509 10.858-13.376 0-11.525-5.533-24.3-10.858-27.98a5.12 5.12 0 0 1 2.871-1.045c5.981-.005 13.729 15.381 13.729 29.02z" transform="translate(-53.806 -186.152)"/>
    </g>
    <g id="Group_68" transform="translate(21.801 32.715)">
        <path id="Path_130" d="M133.972 249.775c0 10.079-4.543 9.9-10.147 9.9s-10.147.18-10.147-9.9 5.726-21.45 10.147-21.45 10.147 11.375 10.147 21.45z" class="cls-7" transform="translate(-113.678 -228.324)"/>
        <path id="Path_131" d="M133.972 249.775c0 10.079-4.543 9.9-10.147 9.9s-10.147.18-10.147-9.9 5.726-21.45 10.147-21.45 10.147 11.375 10.147 21.45z" class="cls-7" transform="translate(-113.678 -228.324)"/>
        <path id="Path_132" d="M164.082 249.77c0 10.079-4.541 9.9-10.147 9.9-1.045 0-2.052.006-3-.05 4.138-.24 7.145-1.649 7.145-9.849 0-7.884-3.5-16.558-7.145-19.964a4.631 4.631 0 0 1 3-1.486c4.422-.001 10.147 11.371 10.147 21.449z" class="cls-9" transform="translate(-143.789 -228.32)"/>
        <path id="Path_133" d="M166.63 301.652a1.44 1.44 0 0 0-2.036 0l-2.635 2.635v-7.049a1.44 1.44 0 1 0-2.88 0V323.807a1.44 1.44 0 1 0 2.88 0v-15.448l4.671-4.671a1.44 1.44 0 0 0 0-2.036z" class="cls-10" transform="translate(-150.372 -282.857)"/>
    </g>
    <g id="Group_69" transform="translate(81.549 43.615)">
        <path id="Path_134" d="M439.852 300.622c0 7.264-3.274 7.134-7.313 7.134s-7.313.13-7.313-7.134 4.127-15.459 7.313-15.459 7.313 8.195 7.313 15.459z" class="cls-7" transform="translate(-425.226 -285.162)"/>
        <path id="Path_135" d="M439.852 300.622c0 7.264-3.274 7.134-7.313 7.134s-7.313.13-7.313-7.134 4.127-15.459 7.313-15.459 7.313 8.195 7.313 15.459z" class="cls-7" transform="translate(-425.226 -285.162)"/>
        <path id="Path_136" d="M460.346 300.619c0 7.262-3.275 7.134-7.314 7.134-.859 0-1.684.006-2.449-.056 2.834-.224 4.861-1.362 4.861-7.078 0-5.475-2.344-11.478-4.861-14.1a3.645 3.645 0 0 1 2.449-1.356c3.187-.005 7.314 8.191 7.314 15.456z" class="cls-9" transform="translate(-445.72 -285.158)"/>
        <path id="Path_137" d="M461.095 336.916a1.44 1.44 0 0 0-2.036 0l-.329.329v-4.109a1.44 1.44 0 0 0-2.88 0v19.685a1.44 1.44 0 1 0 2.88 0v-11.5l2.365-2.365a1.44 1.44 0 0 0 0-2.04z" class="cls-10" transform="translate(-449.977 -322.771)"/>
    </g>
    <path id="Path_138" d="M59.216 279.286a1.44 1.44 0 0 0-2.036-2.036l-.175.175v-3.964a1.44 1.44 0 1 0-2.88 0v12.317l-1.813-1.813A1.44 1.44 0 0 0 50.277 286l3.849 3.849v14.74a1.44 1.44 0 1 0 2.88 0V281.5z" class="cls-10" transform="translate(-40.294 -230.926)"/>
    <g id="Group_71" transform="translate(0 73.166)">
        <g id="Group_70">
            <path id="Path_139" d="M96.751 442.13H1.44a1.44 1.44 0 0 1 0-2.88h95.311a1.44 1.44 0 0 1 0 2.88z" class="cls-1" transform="translate(0 -439.25)"/>
        </g>
    </g>
</svg>
