<svg xmlns="http://www.w3.org/2000/svg" id="honey_1_" width="68.807" height="98.191" viewBox="0 0 68.807 98.191">
    <defs>
        <style>
            .cls-1{fill:#ffdc64}.cls-2{fill:#ffc850}.cls-3{fill:#826469}.cls-4{fill:#5f4b55}.cls-5{fill:#e4eaf8}.cls-6{fill:#6e555e}
        </style>
    </defs>
    <path id="Path_140" d="M146.779 106.279L139.6 99.1H92.084l-7.184 7.179a7.919 7.919 0 0 0-2.319 5.6v60.069a6.335 6.335 0 0 0 6.335 6.335h53.846a6.335 6.335 0 0 0 6.335-6.335v-60.07a7.918 7.918 0 0 0-2.318-5.599z" class="cls-1" transform="translate(-81.436 -80.092)"/>
    <path id="Path_141" d="M139.6 99.1H92.084l-7.184 7.18a7.919 7.919 0 0 0-2.319 5.6v60.069a6.335 6.335 0 0 0 6.335 6.335h17.421a6.335 6.335 0 0 1-6.337-6.336v-60.069a7.918 7.918 0 0 1 2.319-5.6l.375-.375a4.736 4.736 0 0 1 5.532-.866l.066.034a15.585 15.585 0 0 0 15.071 0 9.277 9.277 0 0 1 9.213 0 14.484 14.484 0 0 0 7.538 1.943 14.119 14.119 0 0 0 6.144-1.252z" class="cls-2" transform="translate(-81.436 -80.092)"/>
    <path id="Path_142" d="M176.475 232.7H135.3a3.167 3.167 0 0 1-3.167-3.167V193.1a3.167 3.167 0 0 1 3.167-3.167h41.177a3.167 3.167 0 0 1 3.167 3.167v36.425a3.167 3.167 0 0 1-3.169 3.175z" class="cls-3" transform="translate(-121.483 -153.51)"/>
    <g id="Group_72" transform="translate(28.069 44.344)">
        <path id="Path_143" d="M227.72 239.144a1.581 1.581 0 0 1-1.319-.705l-3.167-4.751a1.584 1.584 0 1 1 2.635-1.757l3.167 4.751a1.584 1.584 0 0 1-1.316 2.462z" class="cls-4" transform="translate(-222.967 -231.225)"/>
        <path id="Path_144" d="M257.582 239.144a1.584 1.584 0 0 1-1.316-2.462l3.167-4.751a1.584 1.584 0 1 1 2.635 1.757l-3.167 4.751a1.581 1.581 0 0 1-1.319.705z" class="cls-4" transform="translate(-249.664 -231.225)"/>
    </g>
    <g id="Group_73" transform="translate(21.734 53.846)">
        <path id="Path_145" d="M193.105 291.86a3.168 3.168 0 0 1-2.239-5.407l4.751-4.751a3.167 3.167 0 0 1 4.479 4.479l-4.751 4.751a3.158 3.158 0 0 1-2.24.928z" class="cls-5" transform="translate(-189.938 -280.774)"/>
        <path id="Path_146" d="M272.178 291.86a3.168 3.168 0 0 0 2.239-5.407l-4.751-4.751a3.167 3.167 0 0 0-4.479 4.479l4.751 4.751a3.158 3.158 0 0 0 2.24.928z" class="cls-5" transform="translate(-250.006 -280.774)"/>
    </g>
    <g id="Group_74" transform="translate(0 7.919)">
        <circle id="Ellipse_12" cx="4.751" cy="4.751" r="4.751" class="cls-6" transform="translate(29.652 41.176)"/>
        <path id="Path_147" d="M144.9 51.421L134.767 41.29H87.256L77.124 51.421a1.767 1.767 0 0 0 .781 2.949c3.057.857 4.117 2.757 8.816 2.757 6.069 0 6.069-3.167 12.139-3.167s6.072 3.167 12.143 3.167 6.07-3.167 12.139-3.167 6.074 3.167 12.147 3.167c4.7 0 5.765-1.9 8.827-2.757a1.767 1.767 0 0 0 .784-2.949z" class="cls-6" transform="translate(-76.608 -41.29)"/>
    </g>
    <path id="Path_148" d="M172.968 467.2h-47.511a1.584 1.584 0 0 1-1.584-1.584v-1.584a1.584 1.584 0 0 1 1.584-1.584h47.512a1.584 1.584 0 0 1 1.584 1.584v1.584a1.584 1.584 0 0 1-1.585 1.584z" class="cls-2" transform="translate(-114.809 -373.764)"/>
    <path id="Path_149" fill="#e1a546" d="M133.375 462.452h-7.919a1.584 1.584 0 0 0-1.584 1.584v1.584a1.584 1.584 0 0 0 1.584 1.584h8.144a6.276 6.276 0 0 1-.224-1.584v-3.167z" transform="translate(-114.809 -373.764)"/>
    <path id="Path_150" d="M139.52 46.041l-4.751-4.751H87.257L77.126 51.421a1.767 1.767 0 0 0 .781 2.949c3.057.857 4.117 2.757 8.816 2.757 6.069 0 6.069-3.167 12.139-3.167.162 0 .3.011.457.015a3.082 3.082 0 0 1 .156-.527L101.714 48a3.167 3.167 0 0 1 2.929-1.962z" class="cls-4" transform="translate(-76.609 -33.371)"/>
    <path id="Path_151" d="M166.294 0h-47.512a3.167 3.167 0 0 0-3.167 3.167v3.168a3.168 3.168 0 0 0 3.167 3.165h47.512a3.168 3.168 0 0 0 3.167-3.167V3.167A3.167 3.167 0 0 0 166.294 0z" class="cls-3" transform="translate(-108.134)"/>
    <g id="Group_75" transform="translate(7.481)">
        <path id="Path_152" d="M129.869 6.335V3.167A3.167 3.167 0 0 1 133.036 0h-14.254a3.167 3.167 0 0 0-3.167 3.167v3.168a3.168 3.168 0 0 0 3.167 3.165h14.254a3.167 3.167 0 0 1-3.167-3.165z" class="cls-6" transform="translate(-115.615)"/>
        <path id="Path_153" d="M135.3 189.935a3.167 3.167 0 0 0-3.167 3.167v36.425a3.168 3.168 0 0 0 3.167 3.173h4.751v-42.76z" class="cls-6" transform="translate(-128.964 -153.51)"/>
    </g>
    <ellipse id="Ellipse_13" cx="4.751" cy="7.126" class="cls-1" rx="4.751" ry="7.126" transform="translate(29.652 55.43)"/>
    <path id="Path_154" d="M231.228 316.183a10.263 10.263 0 0 0 .291 2.376h8.92a9.844 9.844 0 0 0 0-4.751h-8.92a10.263 10.263 0 0 0-.291 2.375z" class="cls-6" transform="translate(-201.575 -253.626)"/>
</svg>
