<svg xmlns="http://www.w3.org/2000/svg" width="84.634" height="86" viewBox="0 0 84.634 86">
    <defs>
        <style>
            .cls-1{fill:#4b414b}.cls-2{fill:#6e555e}.cls-3{fill:#ffdc64}.cls-4{fill:#ffc850}.cls-5{fill:#5f4b55}.cls-6{fill:#e4eaf8}.cls-7{fill:#d5dced}
        </style>
    </defs>
    <g id="bee" transform="translate(-4.066)">
        <g id="Group_14" transform="translate(25.906)">
            <path id="Path_2" d="M151.84 15.017a1.362 1.362 0 0 1-1.112-.572 32.465 32.465 0 0 0-15.644-11.766 1.365 1.365 0 1 1 .749-2.625 34.8 34.8 0 0 1 17.117 12.8 1.365 1.365 0 0 1-1.109 2.158z" class="cls-1" transform="translate(-134.093 -.001)"/>
            <path id="Path_3" d="M265.491 15.016a1.365 1.365 0 0 1-1.109-2.158A34.8 34.8 0 0 1 281.5.053a1.365 1.365 0 0 1 .752 2.624A32.648 32.648 0 0 0 266.6 14.445a1.362 1.362 0 0 1-1.109.571z" class="cls-1" transform="translate(-242.286)"/>
        </g>
        <ellipse id="Ellipse_1" cx="7.565" cy="7.224" class="cls-2" rx="7.565" ry="7.224" transform="translate(38.818 10.124)"/>
        <ellipse id="Ellipse_2" cx="12.285" cy="10.921" class="cls-3" rx="12.285" ry="10.921" transform="translate(34.098 15.015)"/>
        <path id="Path_4" d="M189.683 100.32c0-4.977 3.75-9.169 8.873-10.485a13.7 13.7 0 0 0-3.413-.436c-6.785 0-12.286 4.889-12.286 10.92s5.5 10.92 12.286 10.92a13.7 13.7 0 0 0 3.413-.436c-5.123-1.314-8.873-5.503-8.873-10.483z" class="cls-4" transform="translate(-148.761 -74.384)"/>
        <ellipse id="Ellipse_3" cx="20.475" cy="24.57" class="cls-2" rx="20.475" ry="24.57" transform="translate(25.908 36.857)"/>
        <path id="Path_5" d="M147.747 244c0-9.923 3.005-18.765 7.693-24.519-.29-.015-.575-.053-.868-.053-11.309 0-20.476 11-20.476 24.571s9.167 24.571 20.476 24.571c.293 0 .578-.038.868-.053-4.688-5.751-7.693-14.593-7.693-24.517z" class="cls-5" transform="translate(-108.189 -182.573)"/>
        <path id="Path_6" d="M161.651 241.271a31.354 31.354 0 0 0 19.047-6.244c-2.989-9.127-10.381-15.6-19.047-15.6s-16.058 6.471-19.047 15.6a31.354 31.354 0 0 0 19.047 6.244z" class="cls-3" transform="translate(-115.268 -182.573)"/>
        <path id="Path_7" d="M161.652 219.431a18.838 18.838 0 0 0-14.5 7.274c-.03.036-.055.077-.085.114-.376.461-.742.933-1.087 1.428l.01.011a25.833 25.833 0 0 0-3.383 6.775 30.533 30.533 0 0 0 12.351 5.537c.1-1.374.258-2.719.472-4.03a2.74 2.74 0 0 1 3.022-2.251 30.976 30.976 0 0 0 3.2.163c7.39 0 12.879-2.272 15.673-6.205-3.751-5.383-9.37-8.816-15.673-8.816z" class="cls-4" transform="translate(-115.269 -182.573)"/>
        <g id="Group_15" transform="translate(10.891 15.016)">
            <path id="Path_8" d="M123.556 111.24h-19.111a1.369 1.369 0 0 1-.79-.252l-8.464-6.007a4.127 4.127 0 0 1-1.666-3.3v-1.6a1.36 1.36 0 0 0-.4-.966l-7.391-7.391a1.365 1.365 0 0 1 1.93-1.93l7.391 7.391a4.07 4.07 0 0 1 1.2 2.9v1.6a1.37 1.37 0 0 0 .544 1.09l8.081 5.735h18.242l8.108-5.755a1.357 1.357 0 0 0 .517-1.07v-1.6a4.07 4.07 0 0 1 1.2-2.9l7.391-7.391a1.365 1.365 0 1 1 1.93 1.93l-7.391 7.391a1.36 1.36 0 0 0-.4.966v1.6a4.109 4.109 0 0 1-1.638 3.275l-8.492 6.028a1.37 1.37 0 0 1-.791.256z" class="cls-1" transform="translate(-78.508 -89.399)"/>
            <path id="Path_9" d="M114.315 237.113a1.364 1.364 0 0 1-.873-.316l-7.052-5.876a2.732 2.732 0 0 0-1.746-.633H55.736a2.732 2.732 0 0 0-1.746.633l-7.052 5.879a1.366 1.366 0 1 1-1.749-2.1l7.052-5.876a5.473 5.473 0 0 1 3.5-1.265h48.908a5.473 5.473 0 0 1 3.5 1.265l7.052 5.876a1.365 1.365 0 0 1-.876 2.414z" class="cls-1" transform="translate(-44.698 -204.351)"/>
        </g>
        <path id="Path_10" d="M175.009 360.243c-4.407 4.243-11.913 7.039-20.437 7.039s-16.031-2.8-20.437-7.039c-.01.339-.039.672-.039 1.014 0 1 .048 1.988.127 2.961 5 6.487 12.251 10.594 20.349 10.594s15.349-4.108 20.349-10.594c.08-.974.127-1.96.127-2.961 0-.342-.029-.675-.039-1.014z" class="cls-3" transform="translate(-108.189 -299.733)"/>
        <path id="Path_11" d="M148.111 366.715c-5.781-1.015-10.719-3.346-13.966-6.472v.006c-.009.321-.034.636-.036.958a29.544 29.544 0 0 0 .182 3.08 26.6 26.6 0 0 0 15.362 10 43.975 43.975 0 0 1-1.542-7.572z" class="cls-4" transform="translate(-108.199 -299.733)"/>
        <path id="Path_12" d="M22.494 246.437l-11.229 5.393a5.016 5.016 0 0 1-7.2-4.516 13.651 13.651 0 0 1 4-9.652l24.327-24.327.569 5.745z" class="cls-6" transform="translate(0 -177.501)"/>
        <path id="Path_13" d="M38.293 223.483l-9.518 17.226-8.749 2.153a28.158 28.158 0 0 0-4.576 1.59l-1.65 1.653a13.639 13.639 0 0 0-2.841 4.178l.18-.14a25.266 25.266 0 0 1 9.543-4.631l6.3-1.55-1.185 2.144a31.4 31.4 0 0 1-7.918 9.373l-5.7 4.541a4.973 4.973 0 0 0 4.824.253l11.229-5.392 10.466-27.358z" class="cls-7" transform="translate(-5.733 -185.945)"/>
        <path id="Path_14" d="M119.2 247.536l-11.251 26.059a2.73 2.73 0 0 0 3.52 3.618l5.281-2.113a4.1 4.1 0 0 0 2.538-3.261l2.755-20.891z" class="cls-6" transform="translate(-86.244 -205.958)"/>
        <path id="Path_15" d="M147.073 281.633l2.424-.969a4.1 4.1 0 0 0 2.538-3.261l2.755-20.891-1.908-2.29z" class="cls-7" transform="translate(-118.986 -211.521)"/>
        <path id="Path_16" d="M346.38 246.438l11.229 5.392a5.016 5.016 0 0 0 7.2-4.516 13.651 13.651 0 0 0-4-9.652l-24.327-24.327-.569 5.745z" class="cls-6" transform="translate(-276.109 -177.501)"/>
        <path id="Path_17" d="M336.315 223.483l9.518 17.226 8.749 2.153a28.158 28.158 0 0 1 4.576 1.59l1.653 1.653a13.639 13.639 0 0 1 2.841 4.178l-.18-.14a25.266 25.266 0 0 0-9.543-4.631l-6.3-1.55 1.185 2.144a31.4 31.4 0 0 0 7.918 9.373l5.7 4.541a4.973 4.973 0 0 1-4.824.253l-11.229-5.392-10.466-27.358z" class="cls-7" transform="translate(-276.109 -185.945)"/>
        <path id="Path_18" d="M321.827 247.536l11.251 26.059a2.73 2.73 0 0 1-3.52 3.618l-5.281-2.113a4.1 4.1 0 0 1-2.538-3.261l-2.755-20.891z" class="cls-6" transform="translate(-262.021 -205.958)"/>
        <path id="Path_19" d="M326.7 281.633l-2.424-.969a4.1 4.1 0 0 1-2.538-3.261l-2.755-20.891 1.908-2.29z" class="cls-7" transform="translate(-262.021 -211.521)"/>
        <path id="Path_20" d="M181.62 154.415c8.293 0 15.016 5.806 15.016 12.968s-6.723 10.238-15.016 10.238-15.02-3.076-15.02-10.238 6.727-12.968 15.02-12.968z" class="cls-2" transform="translate(-135.237 -128.478)"/>
        <path id="Path_21" d="M176.159 164.889a15.341 15.341 0 0 1 3.4-9.66c-7.313.871-12.951 6.276-12.951 12.831 0 7.162 6.723 10.238 15.016 10.238a23.6 23.6 0 0 0 8.5-1.395c-7.806-.303-13.965-3.952-13.965-12.014z" class="cls-5" transform="translate(-135.236 -129.155)"/>
    </g>
</svg>
