<svg xmlns="http://www.w3.org/2000/svg" width="59.499" height="86" viewBox="0 0 59.499 86">
    <defs>
        <style>
            .cls-1{fill:#acc6cc}.cls-2{fill:#556065}.cls-3{fill:#ededed}.cls-6{fill:#ffdb6b}
        </style>
    </defs>
    <g id="honey-jar" transform="translate(-20.375 -12.746)">
        <path id="Path_22" d="M66.02 20.913v7.545a6.834 6.834 0 0 0-2.555-.485H28.529a6.9 6.9 0 0 0-2.555.485v-7.545z" class="cls-1" transform="translate(4.128 6.021)"/>
        <path id="Path_23" d="M66.573 30.313a1.287 1.287 0 0 1-.481-.092 5.505 5.505 0 0 0-2.074-.393H29.082a5.573 5.573 0 0 0-2.074.393 1.3 1.3 0 0 1-1.784-1.216v-7.539a1.3 1.3 0 0 1 1.3-1.3h40.049a1.3 1.3 0 0 1 1.3 1.3v7.545a1.3 1.3 0 0 1-1.3 1.3zm-37.49-3.09h34.934a8.323 8.323 0 0 1 1.253.094v-4.548H27.83v4.548a8.323 8.323 0 0 1 1.253-.094z" class="cls-2" transform="translate(3.575 5.468)"/>
        <path id="Path_24" d="M66.02 20.913v7.545a6.834 6.834 0 0 0-2.555-.485H28.529a6.9 6.9 0 0 0-2.555.485v-7.545z" class="cls-3" transform="translate(4.128 6.021)"/>
        <path id="Path_25" d="M66.573 30.313a1.287 1.287 0 0 1-.481-.092 5.505 5.505 0 0 0-2.074-.393H29.082a5.573 5.573 0 0 0-2.074.393 1.3 1.3 0 0 1-1.784-1.216v-7.539a1.3 1.3 0 0 1 1.3-1.3h40.049a1.3 1.3 0 0 1 1.3 1.3v7.545a1.3 1.3 0 0 1-1.3 1.3zm-37.49-3.09h34.934a8.323 8.323 0 0 1 1.253.094v-4.548H27.83v4.548a8.323 8.323 0 0 1 1.253-.094z" class="cls-2" transform="translate(3.575 5.468)"/>
        <rect id="Rectangle_13" width="48.958" height="12.885" fill="#b6d2dd" rx="1.448" transform="translate(25.647 14.054)"/>
        <path id="Path_26" d="M54.564 16.02v7.852a2.507 2.507 0 0 1-2.519 2.5H47.58a2.507 2.507 0 0 0 2.519-2.5V16.02a2.521 2.521 0 0 0-2.519-2.52h4.465a2.521 2.521 0 0 1 2.519 2.519z" class="cls-1" transform="translate(20.055 .557)"/>
        <g id="Group_16" transform="translate(32.542 12.753)">
            <path id="Path_27" d="M28.682 28.239a1.3 1.3 0 0 1-1.3-1.3V14.053a1.3 1.3 0 1 1 2.606 0v12.885a1.3 1.3 0 0 1-1.306 1.301z" class="cls-2" transform="translate(-27.379 -12.75)"/>
            <path id="Path_28" d="M33.367 28.239a1.3 1.3 0 0 1-1.3-1.3V14.053a1.3 1.3 0 1 1 2.606 0v12.885a1.3 1.3 0 0 1-1.306 1.301z" class="cls-2" transform="translate(-23.925 -12.75)"/>
            <path id="Path_29" d="M38.053 28.239a1.3 1.3 0 0 1-1.3-1.3V14.053a1.3 1.3 0 1 1 2.606 0v12.885a1.3 1.3 0 0 1-1.306 1.301z" class="cls-2" transform="translate(-20.471 -12.75)"/>
            <path id="Path_30" d="M42.74 28.239a1.3 1.3 0 0 1-1.3-1.3V14.053a1.3 1.3 0 0 1 2.606 0v12.885a1.3 1.3 0 0 1-1.3 1.3z" class="cls-2" transform="translate(-17.016 -12.75)"/>
            <path id="Path_31" d="M47.425 28.239a1.3 1.3 0 0 1-1.3-1.3V14.053a1.3 1.3 0 1 1 2.606 0v12.885a1.3 1.3 0 0 1-1.306 1.301z" class="cls-2" transform="translate(-13.562 -12.75)"/>
        </g>
        <path id="Path_32" d="M78.018 34.074V84.8a4.419 4.419 0 0 1-4.412 4.412H25.537a4.419 4.419 0 0 1-4.412-4.412V34.074a10.15 10.15 0 0 1 7.487-9.8 9.753 9.753 0 0 1 2.675-.365h36.569a9.66 9.66 0 0 1 2.675.365 10.15 10.15 0 0 1 7.487 9.8z" class="cls-3" transform="translate(.553 8.231)"/>
        <path id="Path_33" fill="#dbd8dd" d="M60.215 34.074V84.8a4.419 4.419 0 0 1-4.415 4.412h-4.775a4.419 4.419 0 0 0 4.413-4.412V34.074a10.15 10.15 0 0 0-7.487-9.8 9.66 9.66 0 0 0-2.675-.365h4.777a9.66 9.66 0 0 1 2.675.365 10.15 10.15 0 0 1 7.487 9.8z" transform="translate(18.356 8.231)"/>
        <path id="Path_34" d="M43.821 35.418h-6.839l-3.421 5.922 3.421 5.924h6.839l3.421-5.924z" class="cls-6" transform="translate(9.721 16.714)"/>
        <path id="Path_35" d="M44.375 49.123h-6.841a1.3 1.3 0 0 1-1.127-.651l-3.421-5.927a1.3 1.3 0 0 1 0-1.3l3.421-5.926a1.308 1.308 0 0 1 1.127-.651h6.841a1.308 1.308 0 0 1 1.127.651l3.419 5.926a1.3 1.3 0 0 1 0 1.3L45.5 48.466a1.3 1.3 0 0 1-1.127.657zm-6.089-2.606h5.337l2.665-4.617-2.667-4.623h-5.335L35.62 41.9z" class="cls-2" transform="translate(9.168 16.158)"/>
        <path id="Path_36" d="M37.918 38.827h-6.841l-3.419 5.924 3.419 5.924h6.841l3.421-5.924z" class="cls-6" transform="translate(5.369 19.227)"/>
        <path id="Path_37" d="M38.469 52.533h-6.838a1.3 1.3 0 0 1-1.127-.651l-3.421-5.924a1.3 1.3 0 0 1 0-1.3l3.417-5.926a1.3 1.3 0 0 1 1.127-.651h6.838a1.3 1.3 0 0 1 1.129.651l3.421 5.922a1.312 1.312 0 0 1 0 1.3L39.6 51.881a1.3 1.3 0 0 1-1.129.651zm-6.08-2.606h5.335l2.667-4.621-2.667-4.619h-5.34l-2.668 4.619z" class="cls-2" transform="translate(4.816 18.677)"/>
        <path id="Path_38" d="M49.728 38.827h-6.839l-3.421 5.924 3.421 5.924h6.839l3.421-5.924z" class="cls-6" transform="translate(14.075 19.227)"/>
        <path id="Path_39" d="M50.28 52.533h-6.838a1.3 1.3 0 0 1-1.129-.651l-3.421-5.924a1.312 1.312 0 0 1 0-1.3l3.421-5.922a1.3 1.3 0 0 1 1.129-.651h6.838a1.3 1.3 0 0 1 1.127.651l3.421 5.922a1.3 1.3 0 0 1 0 1.3l-3.421 5.924a1.3 1.3 0 0 1-1.127.651zm-6.08-2.606h5.335l2.665-4.621-2.668-4.619h-5.339l-2.667 4.619z" class="cls-2" transform="translate(13.523 18.677)"/>
        <path id="Path_40" d="M43.821 42.237h-6.839l-3.421 5.924 3.421 5.924h6.839l3.421-5.924z" class="cls-6" transform="translate(9.721 21.741)"/>
        <path id="Path_41" d="M44.375 55.94h-6.841a1.3 1.3 0 0 1-1.127-.651l-3.421-5.924a1.3 1.3 0 0 1 0-1.3l3.421-5.924a1.3 1.3 0 0 1 1.127-.651h6.841a1.3 1.3 0 0 1 1.127.651l3.419 5.924a1.3 1.3 0 0 1 0 1.3L45.5 55.289a1.3 1.3 0 0 1-1.125.651zm-6.089-2.606h5.335l2.667-4.621-2.665-4.621h-5.337l-2.666 4.622z" class="cls-2" transform="translate(9.168 21.188)"/>
        <path id="Path_42" d="M74.159 91.066H26.09a5.722 5.722 0 0 1-5.715-5.715V34.624a11.465 11.465 0 0 1 8.45-11.05 11.005 11.005 0 0 1 3.016-.41h36.567a10.894 10.894 0 0 1 3.033.415 11.465 11.465 0 0 1 8.432 11.05v50.727a5.722 5.722 0 0 1-5.714 5.71zM31.84 25.765a8.495 8.495 0 0 0-2.319.314 8.86 8.86 0 0 0-6.541 8.545V85.35a3.113 3.113 0 0 0 3.11 3.11h48.069a3.113 3.113 0 0 0 3.11-3.11V34.624a8.86 8.86 0 0 0-6.523-8.54 8.366 8.366 0 0 0-2.337-.32z" class="cls-2" transform="translate(0 7.68)"/>
        <path id="Path_43" d="M70.406 28.242H26.479a3.822 3.822 0 0 1-3.822-3.822v-7.852a3.822 3.822 0 0 1 3.822-3.822h43.927a3.822 3.822 0 0 1 3.822 3.822v7.852a3.822 3.822 0 0 1-3.822 3.822zM26.479 15.357a1.216 1.216 0 0 0-1.216 1.216v7.852a1.216 1.216 0 0 0 1.216 1.216h43.927a1.216 1.216 0 0 0 1.216-1.216v-7.852a1.216 1.216 0 0 0-1.216-1.216z" class="cls-2" transform="translate(1.682)"/>
    </g>
</svg>
