<svg xmlns="http://www.w3.org/2000/svg" width="84.634" height="86.128" viewBox="0 0 84.634 86.128">
    <defs>
        <style>
            .cls-1{fill:#5b88ce}.cls-2{fill:#739ad6}.cls-3{fill:#6dc54a}
        </style>
    </defs>
    <g id="lavender" transform="translate(-4.306)">
        <g id="Group_19" transform="translate(4.306 .276)">
            <path id="Path_57" d="M364.188 6.574l-1.98 5.057-2.046 5.228a.26.26 0 0 1-.495-.038L357.226 6.05a3.652 3.652 0 0 1 3.554-4.46q.138 0 .281.01a3.6 3.6 0 0 1 1.459.427 3.651 3.651 0 0 1 1.668 4.546z" class="cls-1" transform="translate(-295.908 -1.59)"/>
            <path id="Path_58" d="M392.9 80.714v.1a3.653 3.653 0 0 1-4.821 3.358l-6.8-2.3-3.668-1.239a.259.259 0 0 1 .014-.495l10.644-2.938a3.652 3.652 0 0 1 4.14 1.694 3.61 3.61 0 0 1 .491 1.82z" class="cls-1" transform="translate(-312.687 -63.965)"/>
            <path id="Path_59" d="M305.18 67.948l-1.437 5.424-1.39 5.253a.259.259 0 0 1-.495.019L298.2 68.222a3.645 3.645 0 0 1 3.3-4.857 3.606 3.606 0 0 1 1.876.432 3.653 3.653 0 0 1 1.804 4.151z" class="cls-1" transform="translate(-247.033 -52.643)"/>
            <path id="Path_60" d="M337.7 137.886l-6.5-1.4-4.3-.923a.259.259 0 0 1-.043-.493l10.238-4.144a3.652 3.652 0 1 1 .6 6.957z" class="cls-1" transform="translate(-270.752 -108.263)"/>
            <path id="Path_61" d="M252.519 143.738l-.682 5.916-.581 5.055a.259.259 0 0 1-.488.09l-5.114-9.789a3.652 3.652 0 1 1 6.865-1.272z" class="cls-1" transform="translate(-203.428 -115.706)"/>
            <path id="Path_62" d="M295.6 202.729l-6.072-.41-4.947-.335a.259.259 0 0 1-.115-.482l9.537-5.57a3.629 3.629 0 0 1 1.836-.5 3.653 3.653 0 1 1-.24 7.3z" class="cls-1" transform="translate(-235.743 -161.793)"/>
            <path id="Path_63" d="M85.914 95.576l-.732 5.884-.63 5.076a.259.259 0 0 1-.488.087l-5.025-9.836a3.652 3.652 0 1 1 6.875-1.211z" class="cls-1" transform="translate(-65.738 -75.876)"/>
            <path id="Path_64" d="M128.347 155.305l-6.1-.469-4.913-.377a.259.259 0 0 1-.109-.482l9.587-5.483a3.618 3.618 0 0 1 1.808-.484 3.67 3.67 0 0 1 3.169 1.826 3.656 3.656 0 0 1-3.443 5.47z" class="cls-1" transform="translate(-97.523 -122.602)"/>
            <path id="Path_65" d="M43.892 169.613l-.059 6.289-.045 4.755a.258.258 0 0 1-.474.141L37.2 171.6a3.652 3.652 0 1 1 6.693-1.987z" class="cls-1" transform="translate(-30.985 -137.408)"/>
            <path id="Path_66" d="M94.338 219.834l-5.749.217-5.287.2a.258.258 0 0 1-.163-.467l8.9-6.542a3.611 3.611 0 0 1 2.155-.711 3.651 3.651 0 0 1 3.17 1.829 3.49 3.49 0 0 1 .285.621 3.653 3.653 0 0 1-3.311 4.853z" class="cls-1" transform="translate(-69.37 -175.926)"/>
            <path id="Path_67" d="M13.06 267a.259.259 0 0 1-.449.207l-7.371-8.225a3.651 3.651 0 1 1 6.337-2.927l.918 6.778z" class="cls-1" transform="translate(-4.306 -209.282)"/>
            <path id="Path_68" d="M71.48 293.383l-5.315.979-5.548 1.02a.259.259 0 0 1-.229-.439l7.868-7.753a3.653 3.653 0 0 1 5.726.777c.026.045.052.092.076.139a3.652 3.652 0 0 1-2.578 5.277z" class="cls-1" transform="translate(-50.592 -236.763)"/>
        </g>
        <path id="Path_69" d="M381.752 8.656l-1.98 5.057L378.477 8a3.646 3.646 0 0 1 1.607-3.892 3.651 3.651 0 0 1 1.668 4.548z" class="cls-2" transform="translate(-309.166 -3.397)"/>
        <path id="Path_70" d="M411.2 89.424v.1a3.653 3.653 0 0 1-4.821 3.358l-6.8-2.3 10.327-2.858a3.64 3.64 0 0 1 .8-.13 3.61 3.61 0 0 1 .494 1.83z" class="cls-2" transform="translate(-326.688 -72.399)"/>
        <path id="Path_71" d="M322.743 70.021l-1.437 5.424-1.852-5.28a3.643 3.643 0 0 1 1.491-4.295 3.653 3.653 0 0 1 1.798 4.151z" class="cls-2" transform="translate(-260.289 -54.44)"/>
        <path id="Path_72" d="M359.136 146.588l-6.5-1.4 9.235-3.736a3.679 3.679 0 0 1 1.2-.266 3.656 3.656 0 0 1-3.932 5.4z" class="cls-2" transform="translate(-287.885 -116.69)"/>
        <path id="Path_73" d="M270.09 145.815l-.682 5.916-2.494-4.774a3.626 3.626 0 0 1-.418-1.688 3.673 3.673 0 0 1 1.7-3.089 3.646 3.646 0 0 1 1.894 3.635z" class="cls-2" transform="translate(-216.693 -117.508)"/>
        <path id="Path_74" d="M320.318 211.431l-6.072-.41 7.812-4.564a3.643 3.643 0 0 1 1.669-.5 3.655 3.655 0 0 1-3.41 5.471z" class="cls-2" transform="translate(-256.157 -170.22)"/>
        <path id="Path_75" d="M103.476 97.657l-.732 5.884-2.454-4.8a3.625 3.625 0 0 1-.4-1.659 3.665 3.665 0 0 1 1.7-3.089 3.649 3.649 0 0 1 1.886 3.664z" class="cls-2" transform="translate(-78.994 -77.68)"/>
        <path id="Path_76" d="M152.886 164l-6.1-.469 7.9-4.52a3.621 3.621 0 0 1 1.642-.481 3.656 3.656 0 0 1-3.443 5.47z" class="cls-2" transform="translate(-117.756 -131.021)"/>
        <path id="Path_77" d="M61.454 171.7l-.059 6.289-2.947-4.432a3.623 3.623 0 0 1-.613-2.015 3.662 3.662 0 0 1 1.7-3.092 3.642 3.642 0 0 1 1.919 3.25z" class="cls-2" transform="translate(-44.241 -139.219)"/>
        <path id="Path_78" d="M120.8 228.545l-5.749.217 6.783-4.985a3.606 3.606 0 0 1 1.99-.706 3.491 3.491 0 0 1 .285.621 3.653 3.653 0 0 1-3.309 4.853z" class="cls-2" transform="translate(-91.532 -184.361)"/>
        <path id="Path_79" d="M30.057 264.932l-3.568-3.981a3.65 3.65 0 0 1 .764-5.522 3.632 3.632 0 0 1 1.886 2.724z" class="cls-2" transform="translate(-17.563 -211.106)"/>
        <path id="Path_80" d="M99.361 302.086l-5.315.979 5.428-5.348a3.616 3.616 0 0 1 2.389-1.046c.026.045.052.092.076.139a3.652 3.652 0 0 1-2.578 5.276z" class="cls-2" transform="translate(-74.168 -245.189)"/>
        <path id="Path_81" d="M270.435 19.553a1.3 1.3 0 0 0-1.765-.52A72.9 72.9 0 0 0 243.21 42.1a90.123 90.123 0 0 0-14.937 58.448 1.3 1.3 0 0 0 1.294 1.181c.04 0 .081 0 .122-.006a1.3 1.3 0 0 0 1.175-1.416 85.61 85.61 0 0 1 2.9-31.629c4.284-14.954 14.032-35.309 36.15-47.358a1.3 1.3 0 0 0 .52-1.765z" class="cls-3" transform="translate(-184.778 -15.599)"/>
        <path id="Path_82" d="M65.806 87.191A73.729 73.729 0 0 0 44.443 123.5a97.906 97.906 0 0 0-2.489 32.048 1.3 1.3 0 0 0 1.3 1.192h.111a1.3 1.3 0 0 0 1.188-1.406c-1.312-15.534-.06-44.807 23.024-66.234a1.3 1.3 0 1 0-1.771-1.908z" class="cls-3" transform="translate(-30.817 -71.773)"/>
        <path id="Path_83" d="M425.659 7.132l-6.535 2.088-3.984 1.274a.259.259 0 0 1-.283-.406l6.817-8.688a3.652 3.652 0 1 1 3.984 5.733z" class="cls-1" transform="translate(-339.262)"/>
        <path id="Path_84" d="M153.882 73.78l-5.064 3.165-4.3 2.69a.258.258 0 0 1-.373-.325l4.461-10.1a3.65 3.65 0 0 1 5.072-1.74 3.588 3.588 0 0 1 .659.456 3.652 3.652 0 0 1-.455 5.854z" class="cls-1" transform="translate(-115.553 -55.398)"/>
        <path id="Path_85" d="M446.251 9.206l-6.535 2.088 6.238-7.951a3.644 3.644 0 0 1 .918-.833 3.655 3.655 0 0 1-.621 6.7z" class="cls-2" transform="translate(-359.854 -2.074)"/>
        <path id="Path_86" d="M176.26 75.863l-5.06 3.165 3.476-7.868a3.617 3.617 0 0 1 1.383-1.61 3.587 3.587 0 0 1 .659.456 3.652 3.652 0 0 1-.458 5.857z" class="cls-2" transform="translate(-137.93 -57.481)"/>
    </g>
</svg>
